<svg width="43" height="24" viewBox="0 0 43 24" fill="none" xmlns="http://www.w3.org/2000/svg">
<path d="M26 13.5C27.66 13.5 29 12.16 29 10.5C29 8.84 27.66 7.5 26 7.5C24.34 7.5 23 8.84 23 10.5C23 12.16 24.34 13.5 26 13.5ZM26 9.5C26.55 9.5 27 9.95 27 10.5C27 11.05 26.55 11.5 26 11.5C25.45 11.5 25 11.05 25 10.5C25 9.95 25.45 9.5 26 9.5ZM38 6.5H30V14.5H22V4.5H20V19.5H22V16.5H40V19.5H42V10.5C42 8.29 40.21 6.5 38 6.5ZM40 14.5H32V8.5H38C39.1 8.5 40 9.4 40 10.5V14.5Z" fill="black"/>
<path d="M19 13H13V19H11V13H5V11H11V5H13V11H19V13Z" fill="black"/>
</svg>
