<svg width="28" height="28" viewBox="0 0 28 28" fill="none" xmlns="http://www.w3.org/2000/svg">
<path d="M22.1667 4.66668H21V2.33334H18.6667V4.66668H9.33333V2.33334H7V4.66668H5.83333C4.53833 4.66668 3.51167 5.71668 3.51167 7.00001L3.5 23.3333C3.5 24.6167 4.53833 25.6667 5.83333 25.6667H22.1667C23.45 25.6667 24.5 24.6167 24.5 23.3333V7.00001C24.5 5.71668 23.45 4.66668 22.1667 4.66668ZM22.1667 23.3333H5.83333V11.6667H22.1667V23.3333ZM22.1667 9.33334H5.83333V7.00001H22.1667V9.33334ZM10.5 16.3333H8.16667V14H10.5V16.3333ZM15.1667 16.3333H12.8333V14H15.1667V16.3333ZM19.8333 16.3333H17.5V14H19.8333V16.3333ZM10.5 21H8.16667V18.6667H10.5V21ZM15.1667 21H12.8333V18.6667H15.1667V21ZM19.8333 21H17.5V18.6667H19.8333V21Z" fill="white"/>
</svg>
