<svg width="210" height="72" viewBox="0 0 210 72" fill="none" xmlns="http://www.w3.org/2000/svg">
<path d="M68.3889 40.3424C68.2569 40.2838 67.8609 40.2251 67.2009 40.1664C66.5556 40.0931 65.8222 40.0564 65.0009 40.0564C64.3702 40.0564 63.7396 40.0858 63.1089 40.1444C62.4929 40.2031 61.8696 40.2618 61.2389 40.3204L61.5689 39.6604C61.7302 39.7044 61.9136 39.7264 62.1189 39.7264C62.5002 39.7264 62.8889 39.6458 63.2849 39.4844C63.6809 39.3231 63.9302 39.0738 64.0329 38.7364C64.2529 38.0031 64.4509 36.3971 64.6269 33.9184C64.6709 33.3171 64.7149 32.6571 64.7589 31.9384C64.8029 31.2051 64.8322 30.4864 64.8469 29.7824C64.8762 29.0784 64.8909 28.4771 64.8909 27.9784C64.8909 27.8318 64.8836 27.6998 64.8689 27.5824C64.8689 27.4504 64.8689 27.3404 64.8689 27.2524C64.8542 26.7831 64.7736 26.4531 64.6269 26.2624C64.4802 26.0571 64.2089 25.9544 63.8129 25.9544C63.6809 25.9544 63.5269 25.9691 63.3509 25.9984C63.1749 26.0131 62.9842 26.0351 62.7789 26.0644L63.1529 25.3604C63.2996 25.3751 63.5342 25.4044 63.8569 25.4484C64.1796 25.4778 64.5389 25.5071 64.9349 25.5364C65.3456 25.5511 65.7416 25.5584 66.1229 25.5584C66.6362 25.5584 67.2009 25.5291 67.8169 25.4704C68.4329 25.4118 68.9902 25.3604 69.4889 25.3164L68.9609 25.9544C68.8582 25.9398 68.7629 25.9324 68.6749 25.9324C68.6016 25.9178 68.5282 25.9104 68.4549 25.9104C67.9709 25.9104 67.6262 26.0498 67.4209 26.3284C67.2302 26.6071 67.0836 27.0031 66.9809 27.5164C66.8782 28.1178 66.7756 28.9538 66.6729 30.0244C66.5849 31.0804 66.4969 32.3858 66.4089 33.9404C66.3942 34.5271 66.3722 35.1578 66.3429 35.8324C66.3136 36.4924 66.2989 37.0938 66.2989 37.6364C66.2989 37.8711 66.2989 38.0838 66.2989 38.2744C66.3136 38.4504 66.3282 38.6044 66.3429 38.7364C66.3722 39.0591 66.5849 39.3011 66.9809 39.4624C67.3769 39.6091 67.7802 39.6824 68.1909 39.6824C68.4109 39.6824 68.6089 39.6604 68.7849 39.6164L68.3889 40.3424ZM77.0518 40.3424L77.4698 39.6164C77.7191 39.6311 77.9904 39.5798 78.2838 39.4624C78.5771 39.3304 78.7751 39.1398 78.8778 38.8904C78.9658 38.7144 79.0318 38.4724 79.0758 38.1644C79.1344 37.8564 79.1858 37.4751 79.2298 37.0204C79.3031 36.0231 79.3544 35.2458 79.3838 34.6884C79.4278 34.1311 79.4571 33.7204 79.4718 33.4564C79.4864 33.1924 79.4938 32.9944 79.4938 32.8624C79.4938 31.2198 78.9511 30.3984 77.8658 30.3984C77.5138 30.3984 77.1838 30.4498 76.8758 30.5524C76.5824 30.6551 76.2891 30.7798 75.9958 30.9264C75.3944 31.2344 74.9398 31.5718 74.6318 31.9384L74.4778 34.1164C74.4191 34.9671 74.3751 35.7078 74.3458 36.3384C74.3311 36.9691 74.3238 37.4971 74.3238 37.9224C74.3238 38.1131 74.3238 38.2818 74.3238 38.4284C74.3238 38.5604 74.3311 38.6778 74.3458 38.7804C74.4044 39.3818 74.9691 39.6751 76.0398 39.6604L75.6878 40.3204C75.3358 40.1738 74.5584 40.0931 73.3558 40.0784C73.2384 40.0784 72.8718 40.1004 72.2558 40.1444C71.6544 40.1884 70.8111 40.2471 69.7258 40.3204L70.0558 39.7044C71.4638 39.7044 72.2631 39.3964 72.4538 38.7804C72.5271 38.5311 72.6078 38.0251 72.6958 37.2624C72.7838 36.4998 72.8791 35.4438 72.9818 34.0944C73.0111 33.7131 73.0331 33.3611 73.0478 33.0384C73.0624 32.7011 73.0698 32.3931 73.0698 32.1144C73.0698 31.4984 73.0404 31.0438 72.9818 30.7504C72.9231 30.4571 72.7691 30.2738 72.5198 30.2004C72.2851 30.1124 71.8964 30.0684 71.3538 30.0684C71.1778 30.0684 71.0238 30.0758 70.8918 30.0904C70.7598 30.1051 70.6351 30.1344 70.5178 30.1784L70.8918 29.5184C70.9358 29.5331 71.1484 29.5551 71.5298 29.5844C71.9258 29.5991 72.3951 29.6064 72.9378 29.6064C73.2751 29.6064 73.5978 29.5991 73.9058 29.5844C74.2284 29.5551 74.4704 29.5404 74.6318 29.5404C74.8518 29.5404 74.9618 29.6504 74.9618 29.8704C74.9618 29.9878 74.9251 30.1784 74.8518 30.4424C74.7784 30.6918 74.7418 30.8604 74.7418 30.9484C75.0058 30.7871 75.2478 30.6478 75.4678 30.5304C75.7024 30.3984 75.9151 30.2664 76.1058 30.1344C76.8684 29.5918 77.7264 29.3204 78.6798 29.3204C78.9438 29.3204 79.1858 29.3424 79.4058 29.3864C80.6231 29.5624 81.2318 30.1344 81.2318 31.1024C81.2318 31.3518 81.2171 31.6378 81.1878 31.9604C81.1584 32.2831 81.1364 32.6351 81.1218 33.0164C81.1071 33.1631 81.0851 33.4564 81.0558 33.8964C81.0411 34.3218 81.0191 34.7984 80.9898 35.3264C80.9751 35.8398 80.9604 36.3018 80.9458 36.7124C80.9311 37.1231 80.9238 37.3871 80.9238 37.5044C80.9238 38.1498 80.9531 38.6264 81.0118 38.9344C81.0851 39.2424 81.2684 39.4404 81.5618 39.5284C81.8551 39.6164 82.3244 39.6678 82.9698 39.6824C83.2778 39.6824 83.5051 39.6678 83.6518 39.6384L83.2778 40.2984C82.7204 40.2398 82.1778 40.1958 81.6498 40.1664C81.1218 40.1371 80.6084 40.1224 80.1098 40.1224C79.6991 40.1371 79.2371 40.1591 78.7238 40.1884C78.2104 40.2178 77.6531 40.2691 77.0518 40.3424ZM91.081 40.3424L91.499 39.6164C91.7484 39.6311 92.0197 39.5798 92.313 39.4624C92.6064 39.3304 92.8044 39.1398 92.907 38.8904C92.995 38.7144 93.061 38.4724 93.105 38.1644C93.1637 37.8564 93.215 37.4751 93.259 37.0204C93.3324 36.0231 93.3837 35.2458 93.413 34.6884C93.457 34.1311 93.4864 33.7204 93.501 33.4564C93.5157 33.1924 93.523 32.9944 93.523 32.8624C93.523 31.2198 92.9804 30.3984 91.895 30.3984C91.543 30.3984 91.213 30.4498 90.905 30.5524C90.6117 30.6551 90.3184 30.7798 90.025 30.9264C89.4237 31.2344 88.969 31.5718 88.661 31.9384L88.507 34.1164C88.4484 34.9671 88.4044 35.7078 88.375 36.3384C88.3604 36.9691 88.353 37.4971 88.353 37.9224C88.353 38.1131 88.353 38.2818 88.353 38.4284C88.353 38.5604 88.3604 38.6778 88.375 38.7804C88.4337 39.3818 88.9984 39.6751 90.069 39.6604L89.717 40.3204C89.365 40.1738 88.5877 40.0931 87.385 40.0784C87.2677 40.0784 86.901 40.1004 86.285 40.1444C85.6837 40.1884 84.8404 40.2471 83.755 40.3204L84.085 39.7044C85.493 39.7044 86.2924 39.3964 86.483 38.7804C86.5564 38.5311 86.637 38.0251 86.725 37.2624C86.813 36.4998 86.9084 35.4438 87.011 34.0944C87.0404 33.7131 87.0624 33.3611 87.077 33.0384C87.0917 32.7011 87.099 32.3931 87.099 32.1144C87.099 31.4984 87.0697 31.0438 87.011 30.7504C86.9524 30.4571 86.7984 30.2738 86.549 30.2004C86.3144 30.1124 85.9257 30.0684 85.383 30.0684C85.207 30.0684 85.053 30.0758 84.921 30.0904C84.789 30.1051 84.6644 30.1344 84.547 30.1784L84.921 29.5184C84.965 29.5331 85.1777 29.5551 85.559 29.5844C85.955 29.5991 86.4244 29.6064 86.967 29.6064C87.3044 29.6064 87.627 29.5991 87.935 29.5844C88.2577 29.5551 88.4997 29.5404 88.661 29.5404C88.881 29.5404 88.991 29.6504 88.991 29.8704C88.991 29.9878 88.9544 30.1784 88.881 30.4424C88.8077 30.6918 88.771 30.8604 88.771 30.9484C89.035 30.7871 89.277 30.6478 89.497 30.5304C89.7317 30.3984 89.9444 30.2664 90.135 30.1344C90.8977 29.5918 91.7557 29.3204 92.709 29.3204C92.973 29.3204 93.215 29.3424 93.435 29.3864C94.6524 29.5624 95.261 30.1344 95.261 31.1024C95.261 31.3518 95.2464 31.6378 95.217 31.9604C95.1877 32.2831 95.1657 32.6351 95.151 33.0164C95.1364 33.1631 95.1144 33.4564 95.085 33.8964C95.0704 34.3218 95.0484 34.7984 95.019 35.3264C95.0044 35.8398 94.9897 36.3018 94.975 36.7124C94.9604 37.1231 94.953 37.3871 94.953 37.5044C94.953 38.1498 94.9824 38.6264 95.041 38.9344C95.1144 39.2424 95.2977 39.4404 95.591 39.5284C95.8844 39.6164 96.3537 39.6678 96.999 39.6824C97.307 39.6824 97.5344 39.6678 97.681 39.6384L97.307 40.2984C96.7497 40.2398 96.207 40.1958 95.679 40.1664C95.151 40.1371 94.6377 40.1224 94.139 40.1224C93.7284 40.1371 93.2664 40.1591 92.753 40.1884C92.2397 40.2178 91.6824 40.2691 91.081 40.3424ZM105.484 41.0024C105.426 40.8704 105.345 40.7384 105.242 40.6064C105.154 40.4744 105.008 40.2911 104.802 40.0564C104.48 39.6604 104.274 39.3231 104.186 39.0444C104.216 39.1324 104.179 38.9931 104.076 38.6264C103.974 38.2598 103.834 37.7538 103.658 37.1084C103.482 36.4631 103.284 35.7664 103.064 35.0184C102.859 34.2558 102.654 33.5224 102.448 32.8184C102.258 32.0998 102.089 31.4838 101.942 30.9704C101.81 30.4571 101.722 30.1344 101.678 30.0024C101.414 29.0344 101.202 28.2571 101.04 27.6704C100.879 27.0691 100.659 26.6291 100.38 26.3504C100.116 26.0718 99.6763 25.9324 99.0603 25.9324C98.9283 25.9324 98.811 25.9398 98.7083 25.9544C98.6057 25.9691 98.5103 25.9838 98.4223 25.9984L98.7743 25.3384C98.8477 25.3531 99.009 25.3751 99.2583 25.4044C99.5223 25.4338 99.8157 25.4558 100.138 25.4704C100.476 25.4851 100.791 25.4998 101.084 25.5144C101.392 25.5291 101.62 25.5364 101.766 25.5364C102.236 25.5364 102.742 25.5218 103.284 25.4924C103.842 25.4484 104.443 25.3898 105.088 25.3164L104.604 25.9984C104.34 25.9838 104.069 26.0058 103.79 26.0644C103.512 26.1084 103.284 26.2111 103.108 26.3724C102.947 26.5338 102.888 26.7758 102.932 27.0984C103.02 27.7291 103.167 28.4771 103.372 29.3424C103.578 30.1931 103.812 31.1024 104.076 32.0704C104.355 33.0238 104.648 33.9771 104.956 34.9304C105.264 35.8691 105.558 36.7491 105.836 37.5704C105.939 37.4384 106.1 37.1818 106.32 36.8004C106.54 36.4191 106.782 35.9644 107.046 35.4364C107.325 34.9084 107.596 34.3584 107.86 33.7864C108.139 33.2144 108.388 32.6791 108.608 32.1804C109.254 30.6991 109.76 29.4818 110.126 28.5284C110.493 27.5604 110.676 26.9371 110.676 26.6584C110.676 26.3798 110.566 26.1964 110.346 26.1084C110.126 26.0204 109.862 25.9764 109.554 25.9764C109.422 25.9764 109.283 25.9838 109.136 25.9984C108.99 26.0131 108.843 26.0278 108.696 26.0424L109.202 25.3384C109.305 25.3824 109.532 25.4191 109.884 25.4484C110.251 25.4631 110.64 25.4704 111.05 25.4704C111.461 25.4704 111.798 25.4704 112.062 25.4704C112.546 25.4704 113.06 25.4631 113.602 25.4484C114.145 25.4338 114.651 25.3971 115.12 25.3384L114.702 25.9544C114.218 25.9544 113.734 26.0864 113.25 26.3504C112.458 26.8344 111.087 29.0784 109.136 33.0824C107.318 36.8224 106.218 39.4111 105.836 40.8484L105.484 41.0024ZM116.312 27.8684C116.107 27.8684 115.85 27.7291 115.542 27.4504C115.278 27.1864 115.146 26.9738 115.146 26.8124C115.161 26.6658 115.418 26.4018 115.916 26.0204C116.283 25.7418 116.525 25.6024 116.642 25.6024C116.716 25.6024 116.818 25.6538 116.95 25.7564C117.097 25.8591 117.273 25.9618 117.478 26.0644C117.698 26.1671 117.948 26.2184 118.226 26.2184L118.314 26.5484C118.08 26.7391 117.823 26.9371 117.544 27.1424C117.28 27.3478 117.038 27.5238 116.818 27.6704C116.598 27.8024 116.43 27.8684 116.312 27.8684ZM112.286 40.3424L112.616 39.7044C114.039 39.7044 114.853 39.3818 115.058 38.7364C115.117 38.5311 115.176 38.2084 115.234 37.7684C115.293 37.3284 115.344 36.8371 115.388 36.2944C115.432 35.7371 115.469 35.1798 115.498 34.6224C115.542 34.0651 115.572 33.5591 115.586 33.1044C115.616 32.6351 115.63 32.2831 115.63 32.0484C115.63 31.5351 115.608 31.1391 115.564 30.8604C115.535 30.5671 115.432 30.3618 115.256 30.2444C115.095 30.1271 114.824 30.0684 114.442 30.0684C114.164 30.0684 113.848 30.1124 113.496 30.2004L113.826 29.5624C114.076 29.5918 114.398 29.6138 114.794 29.6284C115.205 29.6431 115.652 29.6504 116.136 29.6504C116.342 29.6504 116.584 29.6284 116.862 29.5844C117.141 29.5404 117.31 29.5184 117.368 29.5184C117.574 29.5184 117.676 29.6064 117.676 29.7824C117.676 29.8558 117.662 29.9438 117.632 30.0464C117.603 30.1491 117.574 30.2664 117.544 30.3984C117.486 30.6331 117.42 30.9851 117.346 31.4544C117.288 31.9238 117.229 32.4518 117.17 33.0384C117.112 33.6251 117.06 34.2191 117.016 34.8204C116.972 35.4071 116.936 35.9571 116.906 36.4704C116.877 36.9691 116.862 37.3724 116.862 37.6804C116.862 38.2964 116.936 38.7438 117.082 39.0224C117.229 39.3011 117.478 39.4771 117.83 39.5504C118.197 39.6091 118.688 39.6458 119.304 39.6604L118.952 40.3424C118.6 40.2544 118.219 40.1884 117.808 40.1444C117.398 40.1004 116.921 40.0784 116.378 40.0784C115.821 40.0784 115.227 40.1004 114.596 40.1444C113.966 40.1884 113.196 40.2544 112.286 40.3424ZM124.479 40.4304C122.939 40.4304 121.876 40.0638 121.289 39.3304C120.717 38.5971 120.431 37.5118 120.431 36.0744C120.431 35.2971 120.504 34.5124 120.651 33.7204C120.812 32.9284 121.069 32.2391 121.421 31.6524C122.257 30.1711 123.812 29.4304 126.085 29.4304C127.405 29.4304 128.38 29.7458 129.011 30.3764C129.612 30.9778 129.869 31.7918 129.781 32.8184C129.722 32.9064 129.634 33.0238 129.517 33.1704C129.4 33.3024 129.253 33.4711 129.077 33.6764C128.886 33.9258 128.718 34.1238 128.571 34.2704C128.439 34.4024 128.336 34.4611 128.263 34.4464C128.102 34.4318 127.926 34.4244 127.735 34.4244C127.559 34.4098 127.376 34.4024 127.185 34.4024C126.848 34.4024 126.54 34.4098 126.261 34.4244C125.982 34.4244 125.696 34.4244 125.403 34.4244C125.095 34.4244 124.728 34.4318 124.303 34.4464C123.878 34.4611 123.482 34.4831 123.115 34.5124C122.748 34.5271 122.492 34.5418 122.345 34.5564C122.301 35.1431 122.279 35.6711 122.279 36.1404C122.279 37.2698 122.477 38.1204 122.873 38.6924C123.284 39.2644 124.046 39.5504 125.161 39.5504C127.097 39.5504 128.307 38.6631 128.791 36.8884C128.806 36.8151 128.813 36.7491 128.813 36.6904C128.813 36.6318 128.82 36.5878 128.835 36.5584L129.495 36.2504C129.48 36.3824 129.451 36.5804 129.407 36.8444C129.378 37.1084 129.341 37.4604 129.297 37.9004C129.297 38.0471 129.297 38.2084 129.297 38.3844C129.297 38.5604 129.29 38.7584 129.275 38.9784C129.231 39.1691 129.114 39.3378 128.923 39.4844C128.586 39.8071 128.036 40.0418 127.273 40.1884C126.525 40.3498 125.594 40.4304 124.479 40.4304ZM123.929 33.5664C124.09 33.5664 124.266 33.5664 124.457 33.5664C124.662 33.5664 124.875 33.5591 125.095 33.5444C125.711 33.5298 126.239 33.5078 126.679 33.4784C127.134 33.4491 127.5 33.4198 127.779 33.3904C128.014 33.3464 128.153 33.1338 128.197 32.7524C128.197 31.9604 127.984 31.3518 127.559 30.9264C127.134 30.4864 126.525 30.2664 125.733 30.2664C124.193 30.2664 123.188 30.9704 122.719 32.3784C122.66 32.5838 122.609 32.7671 122.565 32.9284C122.536 33.0898 122.506 33.2731 122.477 33.4784C122.624 33.5078 122.814 33.5298 123.049 33.5444C123.298 33.5591 123.592 33.5664 123.929 33.5664ZM135.953 40.6284C135.938 40.5551 135.872 40.4378 135.755 40.2764C135.637 40.1151 135.491 39.9318 135.315 39.7264C135.153 39.5358 135.014 39.3598 134.897 39.1984C134.794 39.0371 134.728 38.8904 134.699 38.7584C134.625 38.4064 134.508 37.9151 134.347 37.2844C134.185 36.6538 133.995 35.9718 133.775 35.2384C133.569 34.5051 133.357 33.8011 133.137 33.1264C132.917 32.4371 132.704 31.8504 132.499 31.3664C132.308 30.8824 132.147 30.5891 132.015 30.4864C131.883 30.3691 131.685 30.2884 131.421 30.2444C131.157 30.1858 130.915 30.1564 130.695 30.1564C130.533 30.1564 130.394 30.1711 130.277 30.2004L130.167 30.0684L130.431 29.5624C130.475 29.5771 130.636 29.5991 130.915 29.6284C131.193 29.6431 131.509 29.6651 131.861 29.6944C132.227 29.7091 132.55 29.7238 132.829 29.7384C133.122 29.7531 133.298 29.7604 133.357 29.7604C133.811 29.7604 134.303 29.7458 134.831 29.7164C135.373 29.6724 135.96 29.6138 136.591 29.5404L136.129 30.2004C135.674 30.2004 135.278 30.2518 134.941 30.3544C134.618 30.4424 134.457 30.6038 134.457 30.8384C134.427 31.2491 134.559 32.0264 134.853 33.1704C135.161 34.2998 135.652 35.8471 136.327 37.8124C136.62 37.2111 136.899 36.6244 137.163 36.0524C137.427 35.4804 137.698 34.8424 137.977 34.1384C138.534 32.7891 138.864 31.8064 138.967 31.1904C138.805 30.8091 138.666 30.5744 138.549 30.4864C138.417 30.3691 138.219 30.2884 137.955 30.2444C137.691 30.1858 137.449 30.1564 137.229 30.1564C137.067 30.1564 136.928 30.1711 136.811 30.2004L136.701 30.0684L136.965 29.5624C137.009 29.5771 137.17 29.5991 137.449 29.6284C137.727 29.6431 138.043 29.6651 138.395 29.6944C138.761 29.7091 139.084 29.7238 139.363 29.7384C139.656 29.7531 139.832 29.7604 139.891 29.7604C140.345 29.7604 140.837 29.7458 141.365 29.7164C141.907 29.6724 142.494 29.6138 143.125 29.5404L142.663 30.2004C142.208 30.2004 141.812 30.2518 141.475 30.3544C141.152 30.4424 140.991 30.6038 140.991 30.8384C140.961 31.2491 141.093 32.0264 141.387 33.1704C141.695 34.2998 142.186 35.8471 142.861 37.8124C143.154 37.2111 143.433 36.6244 143.697 36.0524C143.961 35.4804 144.232 34.8424 144.511 34.1384C144.848 33.3171 145.105 32.6351 145.281 32.0924C145.457 31.5351 145.545 31.1098 145.545 30.8164C145.545 30.5671 145.413 30.3984 145.149 30.3104C144.885 30.2224 144.606 30.1784 144.313 30.1784C144.225 30.1784 144.137 30.1858 144.049 30.2004C143.975 30.2004 143.902 30.2078 143.829 30.2224L143.741 30.0904L144.115 29.5844C144.144 29.5844 144.32 29.5991 144.643 29.6284C144.98 29.6431 145.354 29.6651 145.765 29.6944C146.175 29.7091 146.505 29.7164 146.755 29.7164C147.136 29.7164 147.613 29.7018 148.185 29.6724C148.757 29.6284 149.241 29.5844 149.637 29.5404L149.241 30.1344C149.035 30.1344 148.815 30.1638 148.581 30.2224C148.346 30.2811 148.089 30.3838 147.811 30.5304C147.063 30.9851 146.109 32.4738 144.951 34.9964C143.924 37.1671 143.227 39.0004 142.861 40.4964L142.487 40.6284C142.472 40.5551 142.406 40.4378 142.289 40.2764C142.171 40.1151 142.025 39.9318 141.849 39.7264C141.687 39.5358 141.548 39.3598 141.431 39.1984C141.328 39.0371 141.262 38.8904 141.233 38.7584C141.159 38.3771 141.035 37.8491 140.859 37.1744C140.683 36.4851 140.477 35.7444 140.243 34.9524C140.023 34.1604 139.795 33.4271 139.561 32.7524C139.37 33.0604 139.179 33.4051 138.989 33.7864C138.813 34.1678 138.622 34.5711 138.417 34.9964C137.39 37.1671 136.693 39.0004 136.327 40.4964L135.953 40.6284ZM6.67229 66.4524C5.58696 66.4524 4.76562 66.3058 4.20829 66.0124C4.09096 65.9538 4.03229 65.8364 4.03229 65.6604C4.10562 65.0444 4.16429 64.4944 4.20829 64.0104C4.26696 63.5118 4.30362 63.0718 4.31829 62.6904L4.95629 62.4484C4.88296 63.4751 4.86096 64.0764 4.89029 64.2524C4.94896 64.5311 5.11762 64.7804 5.39629 65.0004C5.67496 65.2058 6.01229 65.3671 6.40829 65.4844C6.80429 65.6018 7.17829 65.6604 7.53029 65.6604C8.39562 65.6604 9.09229 65.4038 9.62029 64.8904C10.1483 64.3624 10.4123 63.6364 10.4123 62.7124C10.4123 61.9644 10.1996 61.3338 9.77429 60.8204C9.36362 60.3071 8.85762 59.8598 8.25629 59.4784C7.58162 59.0531 6.99496 58.6791 6.49629 58.3564C6.01229 58.0338 5.63829 57.6671 5.37429 57.2564C5.11029 56.8458 4.97829 56.2958 4.97829 55.6064C4.97829 54.8438 5.20562 54.1471 5.66029 53.5164C6.11496 52.8711 6.71629 52.3578 7.46429 51.9764C8.22696 51.5804 9.05562 51.3824 9.95029 51.3824H9.97229C10.339 51.3824 10.7203 51.4191 11.1163 51.4924C11.5123 51.5658 11.8496 51.6684 12.1283 51.8004C12.4216 51.9324 12.5683 52.1011 12.5683 52.3064C12.363 52.7611 12.2016 53.2231 12.0843 53.6924C11.9816 54.1618 11.9156 54.6311 11.8863 55.1004L11.2483 54.8364C11.395 54.5871 11.4683 54.2058 11.4683 53.6924C11.4683 53.1351 11.2483 52.7391 10.8083 52.5044C10.3683 52.2698 9.88429 52.1524 9.35629 52.1524C8.54962 52.1524 7.89696 52.4091 7.39829 52.9224C6.91429 53.4211 6.67229 54.0884 6.67229 54.9244C6.67229 55.4378 6.79696 55.8778 7.04629 56.2444C7.29562 56.5964 7.60362 56.9044 7.97029 57.1684C8.35162 57.4178 8.71829 57.6524 9.07029 57.8724C9.84762 58.3564 10.471 58.8038 10.9403 59.2144C11.4243 59.6104 11.769 60.0211 11.9743 60.4464C12.1943 60.8571 12.3043 61.3411 12.3043 61.8984C12.3043 62.8811 12.055 63.7098 11.5563 64.3844C11.0723 65.0591 10.405 65.5724 9.55429 65.9244C8.71829 66.2764 7.75762 66.4524 6.67229 66.4524ZM18.7223 66.4304C17.1823 66.4304 16.1189 66.0638 15.5323 65.3304C14.9603 64.5971 14.6743 63.5118 14.6743 62.0744C14.6743 61.2971 14.7476 60.5124 14.8943 59.7204C15.0556 58.9284 15.3123 58.2391 15.6643 57.6524C16.5003 56.1711 18.0549 55.4304 20.3283 55.4304C21.6483 55.4304 22.6236 55.7458 23.2543 56.3764C23.8556 56.9778 24.1123 57.7918 24.0243 58.8184C23.9656 58.9064 23.8776 59.0238 23.7603 59.1704C23.6429 59.3024 23.4963 59.4711 23.3203 59.6764C23.1296 59.9258 22.9609 60.1238 22.8143 60.2704C22.6823 60.4024 22.5796 60.4611 22.5063 60.4464C22.3449 60.4318 22.1689 60.4244 21.9783 60.4244C21.8023 60.4098 21.6189 60.4024 21.4283 60.4024C21.0909 60.4024 20.7829 60.4098 20.5043 60.4244C20.2256 60.4244 19.9396 60.4244 19.6463 60.4244C19.3383 60.4244 18.9716 60.4318 18.5463 60.4464C18.1209 60.4611 17.7249 60.4831 17.3583 60.5124C16.9916 60.5271 16.7349 60.5418 16.5883 60.5564C16.5443 61.1431 16.5223 61.6711 16.5223 62.1404C16.5223 63.2698 16.7203 64.1204 17.1163 64.6924C17.5269 65.2644 18.2896 65.5504 19.4043 65.5504C21.3403 65.5504 22.5503 64.6631 23.0343 62.8884C23.0489 62.8151 23.0563 62.7491 23.0563 62.6904C23.0563 62.6318 23.0636 62.5878 23.0783 62.5584L23.7383 62.2504C23.7236 62.3824 23.6943 62.5804 23.6503 62.8444C23.6209 63.1084 23.5843 63.4604 23.5403 63.9004C23.5403 64.0471 23.5403 64.2084 23.5403 64.3844C23.5403 64.5604 23.5329 64.7584 23.5183 64.9784C23.4743 65.1691 23.3569 65.3378 23.1663 65.4844C22.8289 65.8071 22.2789 66.0418 21.5163 66.1884C20.7683 66.3498 19.8369 66.4304 18.7223 66.4304ZM18.1723 59.5664C18.3336 59.5664 18.5096 59.5664 18.7003 59.5664C18.9056 59.5664 19.1183 59.5591 19.3383 59.5444C19.9543 59.5298 20.4823 59.5078 20.9223 59.4784C21.3769 59.4491 21.7436 59.4198 22.0223 59.3904C22.2569 59.3464 22.3963 59.1338 22.4403 58.7524C22.4403 57.9604 22.2276 57.3518 21.8023 56.9264C21.3769 56.4864 20.7683 56.2664 19.9763 56.2664C18.4363 56.2664 17.4316 56.9704 16.9623 58.3784C16.9036 58.5838 16.8523 58.7671 16.8083 58.9284C16.7789 59.0898 16.7496 59.2731 16.7203 59.4784C16.8669 59.5078 17.0576 59.5298 17.2923 59.5444C17.5416 59.5591 17.8349 59.5664 18.1723 59.5664ZM30.152 66.4304C28.612 66.4304 27.5486 66.0638 26.962 65.3304C26.39 64.5971 26.104 63.5118 26.104 62.0744C26.104 61.2971 26.1773 60.5124 26.324 59.7204C26.4853 58.9284 26.742 58.2391 27.094 57.6524C27.93 56.1711 29.4846 55.4304 31.758 55.4304C33.078 55.4304 34.0533 55.7458 34.684 56.3764C35.2853 56.9778 35.542 57.7918 35.454 58.8184C35.3953 58.9064 35.3073 59.0238 35.19 59.1704C35.0726 59.3024 34.926 59.4711 34.75 59.6764C34.5593 59.9258 34.3906 60.1238 34.244 60.2704C34.112 60.4024 34.0093 60.4611 33.936 60.4464C33.7746 60.4318 33.5986 60.4244 33.408 60.4244C33.232 60.4098 33.0486 60.4024 32.858 60.4024C32.5206 60.4024 32.2126 60.4098 31.934 60.4244C31.6553 60.4244 31.3693 60.4244 31.076 60.4244C30.768 60.4244 30.4013 60.4318 29.976 60.4464C29.5506 60.4611 29.1546 60.4831 28.788 60.5124C28.4213 60.5271 28.1646 60.5418 28.018 60.5564C27.974 61.1431 27.952 61.6711 27.952 62.1404C27.952 63.2698 28.15 64.1204 28.546 64.6924C28.9566 65.2644 29.7193 65.5504 30.834 65.5504C32.77 65.5504 33.98 64.6631 34.464 62.8884C34.4786 62.8151 34.486 62.7491 34.486 62.6904C34.486 62.6318 34.4933 62.5878 34.508 62.5584L35.168 62.2504C35.1533 62.3824 35.124 62.5804 35.08 62.8444C35.0506 63.1084 35.014 63.4604 34.97 63.9004C34.97 64.0471 34.97 64.2084 34.97 64.3844C34.97 64.5604 34.9626 64.7584 34.948 64.9784C34.904 65.1691 34.7866 65.3378 34.596 65.4844C34.2586 65.8071 33.7086 66.0418 32.946 66.1884C32.198 66.3498 31.2666 66.4304 30.152 66.4304ZM29.602 59.5664C29.7633 59.5664 29.9393 59.5664 30.13 59.5664C30.3353 59.5664 30.548 59.5591 30.768 59.5444C31.384 59.5298 31.912 59.5078 32.352 59.4784C32.8066 59.4491 33.1733 59.4198 33.452 59.3904C33.6866 59.3464 33.826 59.1338 33.87 58.7524C33.87 57.9604 33.6573 57.3518 33.232 56.9264C32.8066 56.4864 32.198 56.2664 31.406 56.2664C29.866 56.2664 28.8613 56.9704 28.392 58.3784C28.3333 58.5838 28.282 58.7671 28.238 58.9284C28.2086 59.0898 28.1793 59.2731 28.15 59.4784C28.2966 59.5078 28.4873 59.5298 28.722 59.5444C28.9713 59.5591 29.2646 59.5664 29.602 59.5664ZM37.6436 69.8624V69.5764C37.6436 69.4298 37.717 69.2904 37.8636 69.1584C38.597 68.3811 38.9636 67.4938 38.9636 66.4964C38.9636 66.1884 38.8536 65.9171 38.6336 65.6824C38.399 65.4331 38.113 65.2718 37.7756 65.1984L37.8636 64.8024C38.113 64.7584 38.4063 64.5898 38.7436 64.2964L38.9856 64.0324C39.0736 63.9298 39.147 63.8858 39.2056 63.9004C39.8803 63.9884 40.2176 64.4724 40.2176 65.3524C40.2176 66.9804 39.5136 68.3811 38.1056 69.5544C38.047 69.6131 37.9736 69.6644 37.8856 69.7084C37.8123 69.7671 37.7316 69.8184 37.6436 69.8624ZM56.0951 67.0904C56.0951 67.0464 56.0438 66.9584 55.9411 66.8264C55.8531 66.6944 55.7578 66.5551 55.6551 66.4084C55.5525 66.2618 55.4718 66.1591 55.4131 66.1004C55.0758 65.7044 54.8778 65.3744 54.8191 65.1104C54.8045 64.9931 54.7458 64.7364 54.6431 64.3404C54.5405 63.9298 54.4231 63.4604 54.2911 62.9324C54.1591 62.3898 54.0271 61.8691 53.8951 61.3704C53.7778 60.8718 53.6751 60.4758 53.5871 60.1824C53.3818 59.4344 53.1251 58.5251 52.8171 57.4544C52.5238 56.3691 52.1718 55.1371 51.7611 53.7584C51.6291 54.5211 51.5045 55.2838 51.3871 56.0464C51.2698 56.8091 51.1525 57.5718 51.0351 58.3344C50.8885 59.4051 50.7638 60.3291 50.6611 61.1064C50.5731 61.8838 50.5145 62.5144 50.4851 62.9984C50.4705 63.1891 50.4558 63.3651 50.4411 63.5264C50.4411 63.6731 50.4411 63.8198 50.4411 63.9664C50.4411 64.4504 50.4998 64.8171 50.6171 65.0664C50.7491 65.3158 50.9691 65.4844 51.2771 65.5724C51.5998 65.6458 52.0471 65.6824 52.6191 65.6824L52.2671 66.3424C52.2231 66.3278 52.0398 66.2984 51.7171 66.2544C51.3945 66.2251 51.0205 66.1958 50.5951 66.1664C50.1845 66.1224 49.8251 66.1004 49.5171 66.1004C49.1505 66.1004 48.7691 66.1224 48.3731 66.1664C47.9918 66.1958 47.6471 66.2398 47.3391 66.2984C47.0458 66.3571 46.8478 66.4084 46.7451 66.4524L47.1411 65.7704C48.0505 65.7704 48.5785 65.4991 48.7251 64.9564C49.0331 63.8271 49.2971 62.7271 49.5171 61.6564C49.7371 60.5711 49.9278 59.4784 50.0891 58.3784L50.9691 52.5484C50.9545 52.2551 50.8445 52.0644 50.6391 51.9764C50.4338 51.8738 50.1991 51.8224 49.9351 51.8224C49.8178 51.8224 49.7005 51.8298 49.5831 51.8444C49.4658 51.8444 49.3485 51.8518 49.2311 51.8664L49.5611 51.2064C50.0305 51.2944 50.6098 51.3604 51.2991 51.4044C52.0031 51.4338 52.6998 51.4411 53.3891 51.4264C53.3745 51.6024 53.3818 51.8591 53.4111 52.1964C53.4551 52.5191 53.5285 52.9591 53.6311 53.5164C53.8071 54.4258 54.0345 55.4378 54.3131 56.5524C54.5918 57.6524 54.9291 58.8551 55.3251 60.1604C55.4425 60.5564 55.5818 61.0624 55.7431 61.6784C55.9191 62.2798 56.1465 63.0571 56.4251 64.0104C56.8211 63.2038 57.2538 62.2871 57.7231 61.2604C58.1925 60.2338 58.7351 59.0018 59.3511 57.5644C60.0845 55.8778 60.6418 54.5284 61.0231 53.5164C61.4045 52.5044 61.6025 51.8224 61.6171 51.4704C62.3505 51.4558 63.0911 51.4411 63.8391 51.4264C64.6018 51.3971 65.4818 51.3018 66.4791 51.1404L66.0171 51.7784C65.9585 51.7638 65.8925 51.7564 65.8191 51.7564C65.7605 51.7418 65.6945 51.7344 65.6211 51.7344C65.3865 51.7344 65.1665 51.7711 64.9611 51.8444C64.7558 51.9178 64.6091 52.0131 64.5211 52.1304C64.4038 52.2918 64.3231 52.5118 64.2791 52.7904C64.2498 53.0691 64.2205 53.4358 64.1911 53.8904C64.1618 54.4038 64.1325 55.0491 64.1031 55.8264C64.0885 56.6038 64.0811 57.4251 64.0811 58.2904C64.0811 59.1264 64.0885 59.9698 64.1031 60.8204C64.1325 61.6564 64.1691 62.4264 64.2131 63.1304C64.2571 63.8198 64.3085 64.3771 64.3671 64.8024C64.4258 65.1251 64.6385 65.3524 65.0051 65.4844C65.3865 65.6164 65.7898 65.6824 66.2151 65.6824C66.3178 65.6824 66.4131 65.6824 66.5011 65.6824C66.5891 65.6824 66.6771 65.6751 66.7651 65.6604L66.4131 66.3204C66.2665 66.2911 65.8851 66.2471 65.2691 66.1884C64.6531 66.1444 63.9198 66.1224 63.0691 66.1224C62.7025 66.1224 62.2698 66.1371 61.7711 66.1664C61.2725 66.1958 60.8031 66.2251 60.3631 66.2544C59.9378 66.2984 59.6298 66.3351 59.4391 66.3644L59.7691 65.7264C59.8425 65.7411 59.9158 65.7558 59.9891 65.7704C60.0771 65.7704 60.1651 65.7704 60.2531 65.7704C60.6931 65.7704 61.1111 65.6824 61.5071 65.5064C61.9178 65.3158 62.1525 65.0591 62.2111 64.7364C62.2698 64.3551 62.3065 63.7904 62.3211 63.0424C62.3505 62.2944 62.3651 61.4511 62.3651 60.5124C62.3651 59.7351 62.3578 58.9358 62.3431 58.1144C62.3285 57.2931 62.3138 56.4938 62.2991 55.7164C62.2845 54.9244 62.2625 54.2131 62.2331 53.5824C61.9105 54.2278 61.5805 54.8951 61.2431 55.5844C60.9058 56.2591 60.5905 56.9044 60.2971 57.5204C60.0185 58.1364 59.7765 58.6644 59.5711 59.1044C58.8818 60.6151 58.3171 61.8838 57.8771 62.9104C57.4518 63.9371 57.1291 64.7731 56.9091 65.4184C56.6891 66.0491 56.5351 66.5404 56.4471 66.8924L56.0951 67.0904ZM75.1894 66.4084C74.7787 66.4084 74.5147 66.2618 74.3974 65.9684C74.2801 65.6751 74.2214 65.2058 74.2214 64.5604C73.8987 64.7804 73.5321 65.0298 73.1214 65.3084C72.7254 65.5724 72.2854 65.8071 71.8014 66.0124C71.3174 66.2178 70.7894 66.3204 70.2174 66.3204C69.5281 66.3204 68.9707 66.0564 68.5454 65.5284C68.1201 64.9858 67.9074 64.3111 67.9074 63.5044C67.9074 62.9471 68.0321 62.5438 68.2814 62.2944C68.5454 62.0451 68.8094 61.8251 69.0734 61.6344C69.2201 61.5318 69.4181 61.3851 69.6674 61.1944C69.9167 61.0038 70.1734 60.8204 70.4374 60.6444C70.7161 60.4538 70.9434 60.3218 71.1194 60.2484C71.3394 60.1604 71.6547 60.0944 72.0654 60.0504C72.4907 59.9918 72.9307 59.9478 73.3854 59.9184C73.8547 59.8891 74.2581 59.8744 74.5954 59.8744C74.6394 59.4491 74.6614 59.0604 74.6614 58.7084C74.6614 57.9898 74.5441 57.4324 74.3094 57.0364C74.0747 56.6404 73.6641 56.4424 73.0774 56.4424C72.1094 56.4424 71.3027 56.7064 70.6574 57.2344C70.3347 57.5131 70.0781 57.7918 69.8874 58.0704C69.6967 58.3344 69.6014 58.7084 69.6014 59.1924L69.6234 59.8304L69.0294 60.2484C69.0294 60.1751 69.0294 60.1018 69.0294 60.0284C69.0441 59.9404 69.0514 59.8671 69.0514 59.8084C69.0514 59.5738 69.0367 59.3464 69.0074 59.1264C68.9781 58.8918 68.9341 58.6278 68.8754 58.3344C68.8314 58.0851 68.7947 57.9091 68.7654 57.8064C68.7507 57.7038 68.7434 57.6304 68.7434 57.5864C68.7434 57.4104 68.8461 57.2198 69.0514 57.0144C69.2714 56.8091 69.4547 56.6551 69.6014 56.5524C70.1441 56.2004 70.7894 55.9584 71.5374 55.8264C72.3001 55.6798 73.0187 55.6064 73.6934 55.6064C74.6761 55.6064 75.3801 55.8191 75.8054 56.2444C76.2307 56.6551 76.4434 57.1904 76.4434 57.8504C76.4434 58.3491 76.4214 58.9211 76.3774 59.5664C76.3481 60.1971 76.3114 60.8351 76.2674 61.4804C76.2381 62.1258 76.2014 62.7271 76.1574 63.2844C76.1281 63.8271 76.1134 64.2744 76.1134 64.6264C76.1134 65.0224 76.2307 65.2938 76.4654 65.4404C76.7001 65.5724 77.0154 65.6384 77.4114 65.6384C77.5141 65.6384 77.6167 65.6384 77.7194 65.6384C77.8367 65.6238 77.9541 65.6091 78.0714 65.5944L78.1814 65.7264L77.8294 66.3204C77.7121 66.3058 77.5214 66.2984 77.2574 66.2984C76.9934 66.3131 76.7147 66.3278 76.4214 66.3424C76.1281 66.3571 75.8641 66.3718 75.6294 66.3864C75.4094 66.4011 75.2627 66.4084 75.1894 66.4084ZM71.3174 64.8904C71.6401 64.8904 71.9847 64.8318 72.3514 64.7144C72.7181 64.5824 73.0334 64.4431 73.2974 64.2964C73.6787 64.0324 73.9354 63.7611 74.0674 63.4824C74.2141 63.2038 74.3094 62.8591 74.3534 62.4484C74.3974 62.0231 74.4487 61.4878 74.5074 60.8424C73.6274 60.8718 72.9014 60.9304 72.3294 61.0184C71.7721 61.0918 71.3247 61.1871 70.9874 61.3044C70.5034 61.4804 70.1441 61.7444 69.9094 62.0964C69.6747 62.4484 69.5574 62.8151 69.5574 63.1964C69.5574 63.6364 69.7041 64.0324 69.9974 64.3844C70.3054 64.7218 70.7454 64.8904 71.3174 64.8904ZM85.5059 66.3424L85.9239 65.6164C86.1732 65.6311 86.4445 65.5798 86.7379 65.4624C87.0312 65.3304 87.2292 65.1398 87.3319 64.8904C87.4199 64.7144 87.4859 64.4724 87.5299 64.1644C87.5885 63.8564 87.6399 63.4751 87.6839 63.0204C87.7572 62.0231 87.8085 61.2458 87.8379 60.6884C87.8819 60.1311 87.9112 59.7204 87.9259 59.4564C87.9405 59.1924 87.9479 58.9944 87.9479 58.8624C87.9479 57.2198 87.4052 56.3984 86.3199 56.3984C85.9679 56.3984 85.6379 56.4498 85.3299 56.5524C85.0365 56.6551 84.7432 56.7798 84.4499 56.9264C83.8485 57.2344 83.3939 57.5718 83.0859 57.9384L82.9319 60.1164C82.8732 60.9671 82.8292 61.7078 82.7999 62.3384C82.7852 62.9691 82.7779 63.4971 82.7779 63.9224C82.7779 64.1131 82.7779 64.2818 82.7779 64.4284C82.7779 64.5604 82.7852 64.6778 82.7999 64.7804C82.8585 65.3818 83.4232 65.6751 84.4939 65.6604L84.1419 66.3204C83.7899 66.1738 83.0125 66.0931 81.8099 66.0784C81.6925 66.0784 81.3259 66.1004 80.7099 66.1444C80.1085 66.1884 79.2652 66.2471 78.1799 66.3204L78.5099 65.7044C79.9179 65.7044 80.7172 65.3964 80.9079 64.7804C80.9812 64.5311 81.0619 64.0251 81.1499 63.2624C81.2379 62.4998 81.3332 61.4438 81.4359 60.0944C81.4652 59.7131 81.4872 59.3611 81.5019 59.0384C81.5165 58.7011 81.5239 58.3931 81.5239 58.1144C81.5239 57.4984 81.4945 57.0438 81.4359 56.7504C81.3772 56.4571 81.2232 56.2738 80.9739 56.2004C80.7392 56.1124 80.3505 56.0684 79.8079 56.0684C79.6319 56.0684 79.4779 56.0758 79.3459 56.0904C79.2139 56.1051 79.0892 56.1344 78.9719 56.1784L79.3459 55.5184C79.3899 55.5331 79.6025 55.5551 79.9839 55.5844C80.3799 55.5991 80.8492 55.6064 81.3919 55.6064C81.7292 55.6064 82.0519 55.5991 82.3599 55.5844C82.6825 55.5551 82.9245 55.5404 83.0859 55.5404C83.3059 55.5404 83.4159 55.6504 83.4159 55.8704C83.4159 55.9878 83.3792 56.1784 83.3059 56.4424C83.2325 56.6918 83.1959 56.8604 83.1959 56.9484C83.4599 56.7871 83.7019 56.6478 83.9219 56.5304C84.1565 56.3984 84.3692 56.2664 84.5599 56.1344C85.3225 55.5918 86.1805 55.3204 87.1339 55.3204C87.3979 55.3204 87.6399 55.3424 87.8599 55.3864C89.0772 55.5624 89.6859 56.1344 89.6859 57.1024C89.6859 57.3518 89.6712 57.6378 89.6419 57.9604C89.6125 58.2831 89.5905 58.6351 89.5759 59.0164C89.5612 59.1631 89.5392 59.4564 89.5099 59.8964C89.4952 60.3218 89.4732 60.7984 89.4439 61.3264C89.4292 61.8398 89.4145 62.3018 89.3999 62.7124C89.3852 63.1231 89.3779 63.3871 89.3779 63.5044C89.3779 64.1498 89.4072 64.6264 89.4659 64.9344C89.5392 65.2424 89.7225 65.4404 90.0159 65.5284C90.3092 65.6164 90.7785 65.6678 91.4239 65.6824C91.7319 65.6824 91.9592 65.6678 92.1059 65.6384L91.7319 66.2984C91.1745 66.2398 90.6319 66.1958 90.1039 66.1664C89.5759 66.1371 89.0625 66.1224 88.5639 66.1224C88.1532 66.1371 87.6912 66.1591 87.1779 66.1884C86.6645 66.2178 86.1072 66.2691 85.5059 66.3424ZM100.283 66.4084C99.8725 66.4084 99.6085 66.2618 99.4911 65.9684C99.3738 65.6751 99.3151 65.2058 99.3151 64.5604C98.9925 64.7804 98.6258 65.0298 98.2151 65.3084C97.8191 65.5724 97.3791 65.8071 96.8951 66.0124C96.4111 66.2178 95.8831 66.3204 95.3111 66.3204C94.6218 66.3204 94.0645 66.0564 93.6391 65.5284C93.2138 64.9858 93.0011 64.3111 93.0011 63.5044C93.0011 62.9471 93.1258 62.5438 93.3751 62.2944C93.6391 62.0451 93.9031 61.8251 94.1671 61.6344C94.3138 61.5318 94.5118 61.3851 94.7611 61.1944C95.0105 61.0038 95.2671 60.8204 95.5311 60.6444C95.8098 60.4538 96.0371 60.3218 96.2131 60.2484C96.4331 60.1604 96.7485 60.0944 97.1591 60.0504C97.5845 59.9918 98.0245 59.9478 98.4791 59.9184C98.9485 59.8891 99.3518 59.8744 99.6891 59.8744C99.7331 59.4491 99.7551 59.0604 99.7551 58.7084C99.7551 57.9898 99.6378 57.4324 99.4031 57.0364C99.1685 56.6404 98.7578 56.4424 98.1711 56.4424C97.2031 56.4424 96.3965 56.7064 95.7511 57.2344C95.4285 57.5131 95.1718 57.7918 94.9811 58.0704C94.7905 58.3344 94.6951 58.7084 94.6951 59.1924L94.7171 59.8304L94.1231 60.2484C94.1231 60.1751 94.1231 60.1018 94.1231 60.0284C94.1378 59.9404 94.1451 59.8671 94.1451 59.8084C94.1451 59.5738 94.1305 59.3464 94.1011 59.1264C94.0718 58.8918 94.0278 58.6278 93.9691 58.3344C93.9251 58.0851 93.8885 57.9091 93.8591 57.8064C93.8445 57.7038 93.8371 57.6304 93.8371 57.5864C93.8371 57.4104 93.9398 57.2198 94.1451 57.0144C94.3651 56.8091 94.5485 56.6551 94.6951 56.5524C95.2378 56.2004 95.8831 55.9584 96.6311 55.8264C97.3938 55.6798 98.1125 55.6064 98.7871 55.6064C99.7698 55.6064 100.474 55.8191 100.899 56.2444C101.324 56.6551 101.537 57.1904 101.537 57.8504C101.537 58.3491 101.515 58.9211 101.471 59.5664C101.442 60.1971 101.405 60.8351 101.361 61.4804C101.332 62.1258 101.295 62.7271 101.251 63.2844C101.222 63.8271 101.207 64.2744 101.207 64.6264C101.207 65.0224 101.324 65.2938 101.559 65.4404C101.794 65.5724 102.109 65.6384 102.505 65.6384C102.608 65.6384 102.71 65.6384 102.813 65.6384C102.93 65.6238 103.048 65.6091 103.165 65.5944L103.275 65.7264L102.923 66.3204C102.806 66.3058 102.615 66.2984 102.351 66.2984C102.087 66.3131 101.808 66.3278 101.515 66.3424C101.222 66.3571 100.958 66.3718 100.723 66.3864C100.503 66.4011 100.356 66.4084 100.283 66.4084ZM96.4111 64.8904C96.7338 64.8904 97.0785 64.8318 97.4451 64.7144C97.8118 64.5824 98.1271 64.4431 98.3911 64.2964C98.7725 64.0324 99.0291 63.7611 99.1611 63.4824C99.3078 63.2038 99.4031 62.8591 99.4471 62.4484C99.4911 62.0231 99.5425 61.4878 99.6011 60.8424C98.7211 60.8718 97.9951 60.9304 97.4231 61.0184C96.8658 61.0918 96.4185 61.1871 96.0811 61.3044C95.5971 61.4804 95.2378 61.7444 95.0031 62.0964C94.7685 62.4484 94.6511 62.8151 94.6511 63.1964C94.6511 63.6364 94.7978 64.0324 95.0911 64.3844C95.3991 64.7218 95.8391 64.8904 96.4111 64.8904ZM106.882 69.9284C105.503 69.9284 104.535 69.7744 103.978 69.4664C103.435 69.1584 103.164 68.6891 103.164 68.0584C103.164 66.8558 103.912 65.8511 105.408 65.0444C105.364 65.0444 105.32 65.0444 105.276 65.0444C105.246 65.0444 105.21 65.0444 105.166 65.0444C104.77 65.0444 104.462 64.7878 104.242 64.2744C104.11 63.9224 104.044 63.5778 104.044 63.2404C104.044 62.8298 104.168 62.5658 104.418 62.4484C104.843 62.2871 105.21 62.1184 105.518 61.9424C105.826 61.7664 106.075 61.5831 106.266 61.3924C105.664 60.8644 105.364 60.1091 105.364 59.1264C105.364 57.9531 105.716 57.0584 106.42 56.4424C107.138 55.8118 108.165 55.4964 109.5 55.4964C110.277 55.4964 110.937 55.6504 111.48 55.9584H115.022C115.139 55.9584 115.198 56.0024 115.198 56.0904C115.198 56.2078 115.066 56.3618 114.802 56.5524C114.552 56.7431 114.34 56.8384 114.164 56.8384C114.09 56.8384 113.892 56.8238 113.57 56.7944C113.247 56.7504 112.822 56.7138 112.294 56.6844C112.69 57.2271 112.866 57.9238 112.822 58.7744C112.748 59.8744 112.352 60.7104 111.634 61.2824C110.93 61.8544 109.947 62.1404 108.686 62.1404C108.348 62.1404 108.018 62.1038 107.696 62.0304C107.388 61.9571 107.087 61.8471 106.794 61.7004C106.515 61.8324 106.251 62.0304 106.002 62.2944C105.738 62.6024 105.606 62.8664 105.606 63.0864C105.606 63.3798 105.848 63.5484 106.332 63.5924C106.992 63.6511 107.652 63.6951 108.312 63.7244C108.972 63.7538 109.632 63.7684 110.292 63.7684C110.497 63.7684 110.695 63.7684 110.886 63.7684C111.091 63.7538 111.296 63.7464 111.502 63.7464C113.1 63.7464 113.9 64.3111 113.9 65.4404C113.9 66.1151 113.672 66.7311 113.218 67.2884C112.763 67.8458 112.176 68.3151 111.458 68.6964C110.739 69.0924 109.976 69.3931 109.17 69.5984C108.363 69.8184 107.6 69.9284 106.882 69.9284ZM109.06 61.5464C109.764 61.5464 110.292 61.3044 110.644 60.8204C111.01 60.3364 111.194 59.6984 111.194 58.9064C111.194 58.4518 111.106 58.0118 110.93 57.5864C110.768 57.1611 110.534 56.8091 110.226 56.5304C109.918 56.2371 109.551 56.0904 109.126 56.0904C108.407 56.0904 107.872 56.3398 107.52 56.8384C107.182 57.3371 107.014 57.9751 107.014 58.7524C107.014 59.3684 107.116 59.8891 107.322 60.3144C107.527 60.7251 107.784 61.0331 108.092 61.2384C108.414 61.4438 108.737 61.5464 109.06 61.5464ZM107.146 69.2024C107.63 69.2024 108.143 69.1438 108.686 69.0264C109.228 68.9238 109.742 68.7698 110.226 68.5644C110.798 68.3151 111.304 67.9778 111.744 67.5524C112.184 67.1271 112.404 66.7018 112.404 66.2764C112.404 65.7338 112.147 65.4184 111.634 65.3304C110.93 65.2278 109.903 65.1618 108.554 65.1324C108.158 65.1324 107.784 65.1324 107.432 65.1324C107.094 65.1178 106.772 65.1031 106.464 65.0884C105.261 65.4991 104.616 66.2544 104.528 67.3544C104.498 67.9851 104.74 68.4471 105.254 68.7404C105.782 69.0484 106.412 69.2024 107.146 69.2024ZM120.107 66.4304C118.567 66.4304 117.504 66.0638 116.917 65.3304C116.345 64.5971 116.059 63.5118 116.059 62.0744C116.059 61.2971 116.132 60.5124 116.279 59.7204C116.44 58.9284 116.697 58.2391 117.049 57.6524C117.885 56.1711 119.44 55.4304 121.713 55.4304C123.033 55.4304 124.008 55.7458 124.639 56.3764C125.24 56.9778 125.497 57.7918 125.409 58.8184C125.35 58.9064 125.262 59.0238 125.145 59.1704C125.028 59.3024 124.881 59.4711 124.705 59.6764C124.514 59.9258 124.346 60.1238 124.199 60.2704C124.067 60.4024 123.964 60.4611 123.891 60.4464C123.73 60.4318 123.554 60.4244 123.363 60.4244C123.187 60.4098 123.004 60.4024 122.813 60.4024C122.476 60.4024 122.168 60.4098 121.889 60.4244C121.61 60.4244 121.324 60.4244 121.031 60.4244C120.723 60.4244 120.356 60.4318 119.931 60.4464C119.506 60.4611 119.11 60.4831 118.743 60.5124C118.376 60.5271 118.12 60.5418 117.973 60.5564C117.929 61.1431 117.907 61.6711 117.907 62.1404C117.907 63.2698 118.105 64.1204 118.501 64.6924C118.912 65.2644 119.674 65.5504 120.789 65.5504C122.725 65.5504 123.935 64.6631 124.419 62.8884C124.434 62.8151 124.441 62.7491 124.441 62.6904C124.441 62.6318 124.448 62.5878 124.463 62.5584L125.123 62.2504C125.108 62.3824 125.079 62.5804 125.035 62.8444C125.006 63.1084 124.969 63.4604 124.925 63.9004C124.925 64.0471 124.925 64.2084 124.925 64.3844C124.925 64.5604 124.918 64.7584 124.903 64.9784C124.859 65.1691 124.742 65.3378 124.551 65.4844C124.214 65.8071 123.664 66.0418 122.901 66.1884C122.153 66.3498 121.222 66.4304 120.107 66.4304ZM119.557 59.5664C119.718 59.5664 119.894 59.5664 120.085 59.5664C120.29 59.5664 120.503 59.5591 120.723 59.5444C121.339 59.5298 121.867 59.5078 122.307 59.4784C122.762 59.4491 123.128 59.4198 123.407 59.3904C123.642 59.3464 123.781 59.1338 123.825 58.7524C123.825 57.9604 123.612 57.3518 123.187 56.9264C122.762 56.4864 122.153 56.2664 121.361 56.2664C119.821 56.2664 118.816 56.9704 118.347 58.3784C118.288 58.5838 118.237 58.7671 118.193 58.9284C118.164 59.0898 118.134 59.2731 118.105 59.4784C118.252 59.5078 118.442 59.5298 118.677 59.5444C118.926 59.5591 119.22 59.5664 119.557 59.5664ZM127.599 69.8624V69.5764C127.599 69.4298 127.672 69.2904 127.819 69.1584C128.552 68.3811 128.919 67.4938 128.919 66.4964C128.919 66.1884 128.809 65.9171 128.589 65.6824C128.354 65.4331 128.068 65.2718 127.731 65.1984L127.819 64.8024C128.068 64.7584 128.361 64.5898 128.699 64.2964L128.941 64.0324C129.029 63.9298 129.102 63.8858 129.161 63.9004C129.835 63.9884 130.173 64.4724 130.173 65.3524C130.173 66.9804 129.469 68.3811 128.061 69.5544C128.002 69.6131 127.929 69.6644 127.841 69.7084C127.767 69.7671 127.687 69.8184 127.599 69.8624ZM140.176 66.4524C139.091 66.4524 138.27 66.3058 137.712 66.0124C137.595 65.9538 137.536 65.8364 137.536 65.6604C137.61 65.0444 137.668 64.4944 137.712 64.0104C137.771 63.5118 137.808 63.0718 137.822 62.6904L138.46 62.4484C138.387 63.4751 138.365 64.0764 138.394 64.2524C138.453 64.5311 138.622 64.7804 138.9 65.0004C139.179 65.2058 139.516 65.3671 139.912 65.4844C140.308 65.6018 140.682 65.6604 141.034 65.6604C141.9 65.6604 142.596 65.4038 143.124 64.8904C143.652 64.3624 143.916 63.6364 143.916 62.7124C143.916 61.9644 143.704 61.3338 143.278 60.8204C142.868 60.3071 142.362 59.8598 141.76 59.4784C141.086 59.0531 140.499 58.6791 140 58.3564C139.516 58.0338 139.142 57.6671 138.878 57.2564C138.614 56.8458 138.482 56.2958 138.482 55.6064C138.482 54.8438 138.71 54.1471 139.164 53.5164C139.619 52.8711 140.22 52.3578 140.968 51.9764C141.731 51.5804 142.56 51.3824 143.454 51.3824H143.476C143.843 51.3824 144.224 51.4191 144.62 51.4924C145.016 51.5658 145.354 51.6684 145.632 51.8004C145.926 51.9324 146.072 52.1011 146.072 52.3064C145.867 52.7611 145.706 53.2231 145.588 53.6924C145.486 54.1618 145.42 54.6311 145.39 55.1004L144.752 54.8364C144.899 54.5871 144.972 54.2058 144.972 53.6924C144.972 53.1351 144.752 52.7391 144.312 52.5044C143.872 52.2698 143.388 52.1524 142.86 52.1524C142.054 52.1524 141.401 52.4091 140.902 52.9224C140.418 53.4211 140.176 54.0884 140.176 54.9244C140.176 55.4378 140.301 55.8778 140.55 56.2444C140.8 56.5964 141.108 56.9044 141.474 57.1684C141.856 57.4178 142.222 57.6524 142.574 57.8724C143.352 58.3564 143.975 58.8038 144.444 59.2144C144.928 59.6104 145.273 60.0211 145.478 60.4464C145.698 60.8571 145.808 61.3411 145.808 61.8984C145.808 62.8811 145.559 63.7098 145.06 64.3844C144.576 65.0591 143.909 65.5724 143.058 65.9244C142.222 66.2764 141.262 66.4524 140.176 66.4524ZM151.896 66.5404C151.163 66.5404 150.554 66.4011 150.07 66.1224C149.586 65.8438 149.344 65.3744 149.344 64.7144C149.344 64.4064 149.359 63.9811 149.388 63.4384C149.418 62.8958 149.454 62.3018 149.498 61.6564C149.542 60.9964 149.579 60.3511 149.608 59.7204C149.638 59.0751 149.652 58.4958 149.652 57.9824C149.652 57.7771 149.645 57.5864 149.63 57.4104C149.63 57.2344 149.623 57.0804 149.608 56.9484C149.55 56.4204 149.102 56.1564 148.266 56.1564C148.134 56.1564 147.995 56.1638 147.848 56.1784C147.716 56.1931 147.606 56.2078 147.518 56.2224L147.892 55.5624C148.391 55.6211 148.882 55.6651 149.366 55.6944C149.85 55.7238 150.327 55.7384 150.796 55.7384C151.266 55.7384 151.72 55.7238 152.16 55.6944C152.615 55.6651 153.062 55.6284 153.502 55.5844L153.128 56.2004C153.099 56.2004 153.062 56.2004 153.018 56.2004C152.989 56.1858 152.96 56.1784 152.93 56.1784C152.505 56.1784 152.182 56.3104 151.962 56.5744C151.742 56.8238 151.588 57.1538 151.5 57.5644C151.412 57.9751 151.354 58.4078 151.324 58.8624C151.251 59.8598 151.192 60.6371 151.148 61.1944C151.119 61.7518 151.097 62.1551 151.082 62.4044C151.068 62.6538 151.06 62.8371 151.06 62.9544C151.06 64.6264 151.603 65.4624 152.688 65.4624C153.07 65.4624 153.473 65.3891 153.898 65.2424C154.324 65.0811 154.72 64.8831 155.086 64.6484C155.468 64.3991 155.746 64.1571 155.922 63.9224C156.04 62.3531 156.12 61.1064 156.164 60.1824C156.223 59.2438 156.252 58.5104 156.252 57.9824C156.252 57.7918 156.245 57.6231 156.23 57.4764C156.23 57.3298 156.223 57.1978 156.208 57.0804C156.135 56.4644 155.57 56.1638 154.514 56.1784L154.91 55.6284C154.954 55.6724 155.116 55.7091 155.394 55.7384C155.688 55.7531 156.018 55.7678 156.384 55.7824C156.751 55.7824 157.066 55.7824 157.33 55.7824C157.844 55.7824 158.372 55.7604 158.914 55.7164C159.457 55.6724 159.838 55.6431 160.058 55.6284L159.772 56.2004C159.64 56.1564 159.516 56.1344 159.398 56.1344C158.724 56.1344 158.298 56.4498 158.122 57.0804C158.034 57.3738 157.954 57.7698 157.88 58.2684C157.807 58.7524 157.748 59.2878 157.704 59.8744C157.66 60.4611 157.624 61.0551 157.594 61.6564C157.58 62.2431 157.572 62.7784 157.572 63.2624C157.572 63.4531 157.572 63.6364 157.572 63.8124C157.572 63.9738 157.58 64.1278 157.594 64.2744C157.624 64.7878 157.748 65.1471 157.968 65.3524C158.188 65.5431 158.518 65.6384 158.958 65.6384C159.134 65.6384 159.325 65.6238 159.53 65.5944C159.75 65.5651 159.978 65.5358 160.212 65.5064L159.684 66.2984C159.464 66.2984 159.127 66.2911 158.672 66.2764C158.232 66.2618 157.748 66.2544 157.22 66.2544C156.898 66.2544 156.612 66.2691 156.362 66.2984C156.113 66.3278 155.974 66.3424 155.944 66.3424C155.842 66.3424 155.754 66.3131 155.68 66.2544C155.622 66.2104 155.6 66.1444 155.614 66.0564C155.658 65.8218 155.695 65.5944 155.724 65.3744C155.768 65.1544 155.798 65.0004 155.812 64.9124C155.167 65.2938 154.646 65.6091 154.25 65.8584C153.869 66.0931 153.51 66.2618 153.172 66.3644C152.835 66.4818 152.41 66.5404 151.896 66.5404ZM165.595 66.4744C164.539 66.4744 163.695 66.3571 163.065 66.1224C162.449 65.8731 162.001 65.4478 161.723 64.8464C161.459 64.2451 161.327 63.4091 161.327 62.3384C161.327 61.8104 161.363 61.2604 161.437 60.6884C161.51 60.1018 161.613 59.5444 161.745 59.0164C161.891 58.4738 162.075 58.0191 162.295 57.6524C162.764 56.8018 163.431 56.2151 164.297 55.8924C165.177 55.5698 166.123 55.4084 167.135 55.4084C168.132 55.4084 168.975 55.5698 169.665 55.8924C169.958 56.0684 170.105 56.2444 170.105 56.4204C170.105 56.4938 170.075 56.6331 170.017 56.8384C169.958 57.0291 169.929 57.3444 169.929 57.7844C169.929 58.0631 169.929 58.2831 169.929 58.4444C169.929 58.5911 169.936 58.7304 169.951 58.8624L169.357 59.1484L169.247 59.0384C169.291 58.9211 169.313 58.5618 169.313 57.9604C169.313 57.3591 169.093 56.9118 168.653 56.6184C168.227 56.3251 167.692 56.1784 167.047 56.1784C166.02 56.1784 165.155 56.5158 164.451 57.1904C163.908 57.7184 163.549 58.3858 163.373 59.1924C163.211 59.9844 163.131 60.8424 163.131 61.7664C163.131 63.0131 163.343 63.9591 163.769 64.6044C164.209 65.2498 165.015 65.5724 166.189 65.5724C167.421 65.5724 168.623 65.0591 169.797 64.0324L169.379 65.7044C168.909 66.2178 167.648 66.4744 165.595 66.4744ZM176.009 66.4304C174.469 66.4304 173.406 66.0638 172.819 65.3304C172.247 64.5971 171.961 63.5118 171.961 62.0744C171.961 61.2971 172.035 60.5124 172.181 59.7204C172.343 58.9284 172.599 58.2391 172.951 57.6524C173.787 56.1711 175.342 55.4304 177.615 55.4304C178.935 55.4304 179.911 55.7458 180.541 56.3764C181.143 56.9778 181.399 57.7918 181.311 58.8184C181.253 58.9064 181.165 59.0238 181.047 59.1704C180.93 59.3024 180.783 59.4711 180.607 59.6764C180.417 59.9258 180.248 60.1238 180.101 60.2704C179.969 60.4024 179.867 60.4611 179.793 60.4464C179.632 60.4318 179.456 60.4244 179.265 60.4244C179.089 60.4098 178.906 60.4024 178.715 60.4024C178.378 60.4024 178.07 60.4098 177.791 60.4244C177.513 60.4244 177.227 60.4244 176.933 60.4244C176.625 60.4244 176.259 60.4318 175.833 60.4464C175.408 60.4611 175.012 60.4831 174.645 60.5124C174.279 60.5271 174.022 60.5418 173.875 60.5564C173.831 61.1431 173.809 61.6711 173.809 62.1404C173.809 63.2698 174.007 64.1204 174.403 64.6924C174.814 65.2644 175.577 65.5504 176.691 65.5504C178.627 65.5504 179.837 64.6631 180.321 62.8884C180.336 62.8151 180.343 62.7491 180.343 62.6904C180.343 62.6318 180.351 62.5878 180.365 62.5584L181.025 62.2504C181.011 62.3824 180.981 62.5804 180.937 62.8444C180.908 63.1084 180.871 63.4604 180.827 63.9004C180.827 64.0471 180.827 64.2084 180.827 64.3844C180.827 64.5604 180.82 64.7584 180.805 64.9784C180.761 65.1691 180.644 65.3378 180.453 65.4844C180.116 65.8071 179.566 66.0418 178.803 66.1884C178.055 66.3498 177.124 66.4304 176.009 66.4304ZM175.459 59.5664C175.621 59.5664 175.797 59.5664 175.987 59.5664C176.193 59.5664 176.405 59.5591 176.625 59.5444C177.241 59.5298 177.769 59.5078 178.209 59.4784C178.664 59.4491 179.031 59.4198 179.309 59.3904C179.544 59.3464 179.683 59.1338 179.727 58.7524C179.727 57.9604 179.515 57.3518 179.089 56.9264C178.664 56.4864 178.055 56.2664 177.263 56.2664C175.723 56.2664 174.719 56.9704 174.249 58.3784C174.191 58.5838 174.139 58.7671 174.095 58.9284C174.066 59.0898 174.037 59.2731 174.007 59.4784C174.154 59.5078 174.345 59.5298 174.579 59.5444C174.829 59.5591 175.122 59.5664 175.459 59.5664ZM187.439 66.4304C185.899 66.4304 184.836 66.0638 184.249 65.3304C183.677 64.5971 183.391 63.5118 183.391 62.0744C183.391 61.2971 183.464 60.5124 183.611 59.7204C183.772 58.9284 184.029 58.2391 184.381 57.6524C185.217 56.1711 186.772 55.4304 189.045 55.4304C190.365 55.4304 191.34 55.7458 191.971 56.3764C192.572 56.9778 192.829 57.7918 192.741 58.8184C192.682 58.9064 192.594 59.0238 192.477 59.1704C192.36 59.3024 192.213 59.4711 192.037 59.6764C191.846 59.9258 191.678 60.1238 191.531 60.2704C191.399 60.4024 191.296 60.4611 191.223 60.4464C191.062 60.4318 190.886 60.4244 190.695 60.4244C190.519 60.4098 190.336 60.4024 190.145 60.4024C189.808 60.4024 189.5 60.4098 189.221 60.4244C188.942 60.4244 188.656 60.4244 188.363 60.4244C188.055 60.4244 187.688 60.4318 187.263 60.4464C186.838 60.4611 186.442 60.4831 186.075 60.5124C185.708 60.5271 185.452 60.5418 185.305 60.5564C185.261 61.1431 185.239 61.6711 185.239 62.1404C185.239 63.2698 185.437 64.1204 185.833 64.6924C186.244 65.2644 187.006 65.5504 188.121 65.5504C190.057 65.5504 191.267 64.6631 191.751 62.8884C191.766 62.8151 191.773 62.7491 191.773 62.6904C191.773 62.6318 191.78 62.5878 191.795 62.5584L192.455 62.2504C192.44 62.3824 192.411 62.5804 192.367 62.8444C192.338 63.1084 192.301 63.4604 192.257 63.9004C192.257 64.0471 192.257 64.2084 192.257 64.3844C192.257 64.5604 192.25 64.7584 192.235 64.9784C192.191 65.1691 192.074 65.3378 191.883 65.4844C191.546 65.8071 190.996 66.0418 190.233 66.1884C189.485 66.3498 188.554 66.4304 187.439 66.4304ZM186.889 59.5664C187.05 59.5664 187.226 59.5664 187.417 59.5664C187.622 59.5664 187.835 59.5591 188.055 59.5444C188.671 59.5298 189.199 59.5078 189.639 59.4784C190.094 59.4491 190.46 59.4198 190.739 59.3904C190.974 59.3464 191.113 59.1338 191.157 58.7524C191.157 57.9604 190.944 57.3518 190.519 56.9264C190.094 56.4864 189.485 56.2664 188.693 56.2664C187.153 56.2664 186.148 56.9704 185.679 58.3784C185.62 58.5838 185.569 58.7671 185.525 58.9284C185.496 59.0898 185.466 59.2731 185.437 59.4784C185.584 59.5078 185.774 59.5298 186.009 59.5444C186.258 59.5591 186.552 59.5664 186.889 59.5664ZM202.411 66.4304C202.176 66.4304 202.044 66.2838 202.015 65.9904C202.015 65.9318 202.007 65.8584 201.993 65.7704C201.993 65.6824 201.993 65.5651 201.993 65.4184C201.993 65.3304 201.993 65.2131 201.993 65.0664C202.007 64.9198 202.015 64.7658 202.015 64.6044C201.604 65.1178 201.076 65.5284 200.431 65.8364C199.785 66.1298 199.03 66.2764 198.165 66.2764C197.387 66.2764 196.749 66.1004 196.251 65.7484C195.752 65.3818 195.385 64.8904 195.151 64.2744C194.931 63.6438 194.821 62.9398 194.821 62.1624C194.821 61.6051 194.865 61.0258 194.953 60.4244C195.041 59.8231 195.173 59.2511 195.349 58.7084C195.525 58.1658 195.745 57.7038 196.009 57.3224C196.786 56.1491 198.084 55.5624 199.903 55.5624C200.431 55.5624 200.944 55.6578 201.443 55.8484C201.956 56.0244 202.381 56.2958 202.719 56.6624C202.763 55.6651 202.785 54.8438 202.785 54.1984C202.785 53.0838 202.719 52.4531 202.587 52.3064C202.352 52.0864 202.022 51.9764 201.597 51.9764C201.347 51.9764 201.054 52.0204 200.717 52.1084L201.047 51.4704C201.208 51.4851 201.472 51.5071 201.839 51.5364C202.205 51.5511 202.682 51.5658 203.269 51.5804C203.43 51.5804 203.665 51.5584 203.973 51.5144C204.295 51.4558 204.501 51.4264 204.589 51.4264C204.662 51.4264 204.728 51.4484 204.787 51.4924C204.86 51.5218 204.897 51.5731 204.897 51.6464C204.897 51.6611 204.882 51.7418 204.853 51.8884C204.823 52.0351 204.787 52.1891 204.743 52.3504C204.713 52.4971 204.691 52.6071 204.677 52.6804C204.574 53.3551 204.464 54.2644 204.347 55.4084C204.244 56.5524 204.119 58.1291 203.973 60.1384C203.914 60.8424 203.877 61.4731 203.863 62.0304C203.848 62.5731 203.841 63.0571 203.841 63.4824C203.841 64.0691 203.863 64.5091 203.907 64.8024C203.995 65.3451 204.611 65.6164 205.755 65.6164C205.872 65.6164 205.982 65.6164 206.085 65.6164C206.187 65.6164 206.268 65.6091 206.327 65.5944L206.415 65.7264L206.041 66.2764C205.835 66.2471 205.608 66.2251 205.359 66.2104C205.109 66.2104 204.801 66.2104 204.435 66.2104C204.141 66.2104 203.877 66.2178 203.643 66.2324C203.408 66.2618 203.203 66.2911 203.027 66.3204C202.909 66.3351 202.792 66.3571 202.675 66.3864C202.572 66.4158 202.484 66.4304 202.411 66.4304ZM198.957 65.3524C199.851 65.3524 200.614 65.0078 201.245 64.3184C201.875 63.6291 202.242 62.5731 202.345 61.1504C202.359 60.9744 202.367 60.8058 202.367 60.6444C202.381 60.4831 202.389 60.3291 202.389 60.1824C202.389 58.8331 202.176 57.8724 201.751 57.3004C201.34 56.7284 200.746 56.4424 199.969 56.4424C198.854 56.4424 197.967 56.9558 197.307 57.9824C197.028 58.4518 196.83 59.0311 196.713 59.7204C196.595 60.4098 196.537 61.0478 196.537 61.6344C196.537 62.6024 196.647 63.3578 196.867 63.9004C197.087 64.4431 197.38 64.8244 197.747 65.0444C198.113 65.2498 198.517 65.3524 198.957 65.3524Z" fill="white"/>
<path d="M30.4615 14.9781V6.41919H11.6154V44.9343H49.3077V14.9781H30.4615ZM19.1538 40.6548H15.3846V36.3754H19.1538V40.6548ZM19.1538 32.0959H15.3846V27.8165H19.1538V32.0959ZM19.1538 23.537H15.3846V19.2575H19.1538V23.537ZM19.1538 14.9781H15.3846V10.6986H19.1538V14.9781ZM26.6923 40.6548H22.9231V36.3754H26.6923V40.6548ZM26.6923 32.0959H22.9231V27.8165H26.6923V32.0959ZM26.6923 23.537H22.9231V19.2575H26.6923V23.537ZM26.6923 14.9781H22.9231V10.6986H26.6923V14.9781ZM45.5385 40.6548H30.4615V36.3754H34.2308V32.0959H30.4615V27.8165H34.2308V23.537H30.4615V19.2575H45.5385V40.6548ZM41.7692 23.537H38V27.8165H41.7692V23.537ZM41.7692 32.0959H38V36.3754H41.7692V32.0959Z" fill="white"/>
</svg>
