<svg width="130" height="41" viewBox="0 0 130 41" fill="none" xmlns="http://www.w3.org/2000/svg">
<path d="M41.702 21.112C41.618 21.0747 41.366 21.0373 40.946 21C40.5354 20.9533 40.0687 20.93 39.546 20.93C39.1447 20.93 38.7434 20.9487 38.342 20.986C37.95 21.0233 37.5534 21.0607 37.152 21.098L37.362 20.678C37.4647 20.706 37.5814 20.72 37.712 20.72C37.9547 20.72 38.202 20.6687 38.454 20.566C38.706 20.4633 38.8647 20.3047 38.93 20.09C39.07 19.6233 39.196 18.6013 39.308 17.024C39.336 16.6413 39.364 16.2213 39.392 15.764C39.42 15.2973 39.4387 14.84 39.448 14.392C39.4667 13.944 39.476 13.5613 39.476 13.244C39.476 13.1507 39.4714 13.0667 39.462 12.992C39.462 12.908 39.462 12.838 39.462 12.782C39.4527 12.4833 39.4014 12.2733 39.308 12.152C39.2147 12.0213 39.042 11.956 38.79 11.956C38.706 11.956 38.608 11.9653 38.496 11.984C38.384 11.9933 38.2627 12.0073 38.132 12.026L38.37 11.578C38.4634 11.5873 38.6127 11.606 38.818 11.634C39.0234 11.6527 39.252 11.6713 39.504 11.69C39.7654 11.6993 40.0174 11.704 40.26 11.704C40.5867 11.704 40.946 11.6853 41.338 11.648C41.73 11.6107 42.0847 11.578 42.402 11.55L42.066 11.956C42.0007 11.9467 41.94 11.942 41.884 11.942C41.8374 11.9327 41.7907 11.928 41.744 11.928C41.436 11.928 41.2167 12.0167 41.086 12.194C40.9647 12.3713 40.8714 12.6233 40.806 12.95C40.7407 13.3327 40.6754 13.8647 40.61 14.546C40.554 15.218 40.498 16.0487 40.442 17.038C40.4327 17.4113 40.4187 17.8127 40.4 18.242C40.3814 18.662 40.372 19.0447 40.372 19.39C40.372 19.5393 40.372 19.6747 40.372 19.796C40.3814 19.908 40.3907 20.006 40.4 20.09C40.4187 20.2953 40.554 20.4493 40.806 20.552C41.058 20.6453 41.3147 20.692 41.576 20.692C41.716 20.692 41.842 20.678 41.954 20.65L41.702 21.112ZM47.2148 21.112L47.4808 20.65C47.6394 20.6593 47.8121 20.6267 47.9988 20.552C48.1854 20.468 48.3114 20.3467 48.3768 20.188C48.4328 20.076 48.4748 19.922 48.5028 19.726C48.5401 19.53 48.5728 19.2873 48.6008 18.998C48.6474 18.3633 48.6801 17.8687 48.6988 17.514C48.7268 17.1593 48.7454 16.898 48.7548 16.73C48.7641 16.562 48.7688 16.436 48.7688 16.352C48.7688 15.3067 48.4234 14.784 47.7328 14.784C47.5088 14.784 47.2988 14.8167 47.1028 14.882C46.9161 14.9473 46.7294 15.0267 46.5428 15.12C46.1601 15.316 45.8708 15.5307 45.6748 15.764L45.5768 17.15C45.5394 17.6913 45.5114 18.1627 45.4928 18.564C45.4834 18.9653 45.4788 19.3013 45.4788 19.572C45.4788 19.6933 45.4788 19.8007 45.4788 19.894C45.4788 19.978 45.4834 20.0527 45.4928 20.118C45.5301 20.5007 45.8894 20.6873 46.5708 20.678L46.3468 21.098C46.1228 21.0047 45.6281 20.9533 44.8628 20.944C44.7881 20.944 44.5548 20.958 44.1628 20.986C43.7801 21.014 43.2434 21.0513 42.5528 21.098L42.7628 20.706C43.6588 20.706 44.1674 20.51 44.2888 20.118C44.3354 19.9593 44.3868 19.6373 44.4428 19.152C44.4988 18.6667 44.5594 17.9947 44.6248 17.136C44.6434 16.8933 44.6574 16.6693 44.6668 16.464C44.6761 16.2493 44.6808 16.0533 44.6808 15.876C44.6808 15.484 44.6621 15.1947 44.6248 15.008C44.5874 14.8213 44.4894 14.7047 44.3308 14.658C44.1814 14.602 43.9341 14.574 43.5888 14.574C43.4768 14.574 43.3788 14.5787 43.2948 14.588C43.2108 14.5973 43.1314 14.616 43.0568 14.644L43.2948 14.224C43.3228 14.2333 43.4581 14.2473 43.7008 14.266C43.9528 14.2753 44.2514 14.28 44.5968 14.28C44.8114 14.28 45.0168 14.2753 45.2128 14.266C45.4181 14.2473 45.5721 14.238 45.6748 14.238C45.8148 14.238 45.8848 14.308 45.8848 14.448C45.8848 14.5227 45.8614 14.644 45.8148 14.812C45.7681 14.9707 45.7448 15.078 45.7448 15.134C45.9128 15.0313 46.0668 14.9427 46.2068 14.868C46.3561 14.784 46.4914 14.7 46.6128 14.616C47.0981 14.2707 47.6441 14.098 48.2508 14.098C48.4188 14.098 48.5728 14.112 48.7128 14.14C49.4874 14.252 49.8748 14.616 49.8748 15.232C49.8748 15.3907 49.8654 15.5727 49.8468 15.778C49.8281 15.9833 49.8141 16.2073 49.8048 16.45C49.7954 16.5433 49.7814 16.73 49.7628 17.01C49.7534 17.2807 49.7394 17.584 49.7208 17.92C49.7114 18.2467 49.7021 18.5407 49.6928 18.802C49.6834 19.0633 49.6788 19.2313 49.6788 19.306C49.6788 19.7167 49.6974 20.02 49.7348 20.216C49.7814 20.412 49.8981 20.538 50.0848 20.594C50.2714 20.65 50.5701 20.6827 50.9808 20.692C51.1768 20.692 51.3214 20.6827 51.4148 20.664L51.1768 21.084C50.8221 21.0467 50.4768 21.0187 50.1408 21C49.8048 20.9813 49.4781 20.972 49.1608 20.972C48.8994 20.9813 48.6054 20.9953 48.2788 21.014C47.9521 21.0327 47.5974 21.0653 47.2148 21.112ZM56.1425 21.112L56.4085 20.65C56.5672 20.6593 56.7398 20.6267 56.9265 20.552C57.1132 20.468 57.2392 20.3467 57.3045 20.188C57.3605 20.076 57.4025 19.922 57.4305 19.726C57.4678 19.53 57.5005 19.2873 57.5285 18.998C57.5752 18.3633 57.6078 17.8687 57.6265 17.514C57.6545 17.1593 57.6732 16.898 57.6825 16.73C57.6918 16.562 57.6965 16.436 57.6965 16.352C57.6965 15.3067 57.3512 14.784 56.6605 14.784C56.4365 14.784 56.2265 14.8167 56.0305 14.882C55.8438 14.9473 55.6572 15.0267 55.4705 15.12C55.0878 15.316 54.7985 15.5307 54.6025 15.764L54.5045 17.15C54.4672 17.6913 54.4392 18.1627 54.4205 18.564C54.4112 18.9653 54.4065 19.3013 54.4065 19.572C54.4065 19.6933 54.4065 19.8007 54.4065 19.894C54.4065 19.978 54.4112 20.0527 54.4205 20.118C54.4578 20.5007 54.8172 20.6873 55.4985 20.678L55.2745 21.098C55.0505 21.0047 54.5558 20.9533 53.7905 20.944C53.7158 20.944 53.4825 20.958 53.0905 20.986C52.7078 21.014 52.1712 21.0513 51.4805 21.098L51.6905 20.706C52.5865 20.706 53.0952 20.51 53.2165 20.118C53.2632 19.9593 53.3145 19.6373 53.3705 19.152C53.4265 18.6667 53.4872 17.9947 53.5525 17.136C53.5712 16.8933 53.5852 16.6693 53.5945 16.464C53.6038 16.2493 53.6085 16.0533 53.6085 15.876C53.6085 15.484 53.5898 15.1947 53.5525 15.008C53.5152 14.8213 53.4172 14.7047 53.2585 14.658C53.1092 14.602 52.8618 14.574 52.5165 14.574C52.4045 14.574 52.3065 14.5787 52.2225 14.588C52.1385 14.5973 52.0592 14.616 51.9845 14.644L52.2225 14.224C52.2505 14.2333 52.3858 14.2473 52.6285 14.266C52.8805 14.2753 53.1792 14.28 53.5245 14.28C53.7392 14.28 53.9445 14.2753 54.1405 14.266C54.3458 14.2473 54.4998 14.238 54.6025 14.238C54.7425 14.238 54.8125 14.308 54.8125 14.448C54.8125 14.5227 54.7892 14.644 54.7425 14.812C54.6958 14.9707 54.6725 15.078 54.6725 15.134C54.8405 15.0313 54.9945 14.9427 55.1345 14.868C55.2838 14.784 55.4192 14.7 55.5405 14.616C56.0258 14.2707 56.5718 14.098 57.1785 14.098C57.3465 14.098 57.5005 14.112 57.6405 14.14C58.4152 14.252 58.8025 14.616 58.8025 15.232C58.8025 15.3907 58.7932 15.5727 58.7745 15.778C58.7558 15.9833 58.7418 16.2073 58.7325 16.45C58.7232 16.5433 58.7092 16.73 58.6905 17.01C58.6812 17.2807 58.6672 17.584 58.6485 17.92C58.6392 18.2467 58.6298 18.5407 58.6205 18.802C58.6112 19.0633 58.6065 19.2313 58.6065 19.306C58.6065 19.7167 58.6252 20.02 58.6625 20.216C58.7092 20.412 58.8258 20.538 59.0125 20.594C59.1992 20.65 59.4978 20.6827 59.9085 20.692C60.1045 20.692 60.2492 20.6827 60.3425 20.664L60.1045 21.084C59.7498 21.0467 59.4045 21.0187 59.0685 21C58.7325 20.9813 58.4058 20.972 58.0885 20.972C57.8272 20.9813 57.5332 20.9953 57.2065 21.014C56.8798 21.0327 56.5252 21.0653 56.1425 21.112ZM65.3082 21.532C65.2709 21.448 65.2196 21.364 65.1542 21.28C65.0982 21.196 65.0049 21.0793 64.8742 20.93C64.6689 20.678 64.5382 20.4633 64.4822 20.286C64.5009 20.342 64.4776 20.2533 64.4122 20.02C64.3469 19.7867 64.2582 19.4647 64.1462 19.054C64.0342 18.6433 63.9082 18.2 63.7682 17.724C63.6376 17.2387 63.5069 16.772 63.3762 16.324C63.2549 15.8667 63.1476 15.4747 63.0542 15.148C62.9702 14.8213 62.9142 14.616 62.8862 14.532C62.7182 13.916 62.5829 13.4213 62.4802 13.048C62.3776 12.6653 62.2376 12.3853 62.0602 12.208C61.8922 12.0307 61.6122 11.942 61.2202 11.942C61.1362 11.942 61.0616 11.9467 60.9962 11.956C60.9309 11.9653 60.8702 11.9747 60.8142 11.984L61.0382 11.564C61.0849 11.5733 61.1876 11.5873 61.3462 11.606C61.5142 11.6247 61.7009 11.6387 61.9062 11.648C62.1209 11.6573 62.3216 11.6667 62.5082 11.676C62.7042 11.6853 62.8489 11.69 62.9422 11.69C63.2409 11.69 63.5629 11.6807 63.9082 11.662C64.2629 11.634 64.6456 11.5967 65.0562 11.55L64.7482 11.984C64.5802 11.9747 64.4076 11.9887 64.2302 12.026C64.0529 12.054 63.9082 12.1193 63.7962 12.222C63.6936 12.3247 63.6562 12.4787 63.6842 12.684C63.7402 13.0853 63.8336 13.5613 63.9642 14.112C64.0949 14.6533 64.2442 15.232 64.4122 15.848C64.5896 16.4547 64.7762 17.0613 64.9722 17.668C65.1682 18.2653 65.3549 18.8253 65.5322 19.348C65.5976 19.264 65.7002 19.1007 65.8402 18.858C65.9802 18.6153 66.1342 18.326 66.3022 17.99C66.4796 17.654 66.6522 17.304 66.8202 16.94C66.9976 16.576 67.1562 16.2353 67.2962 15.918C67.7069 14.9753 68.0289 14.2007 68.2622 13.594C68.4956 12.978 68.6122 12.5813 68.6122 12.404C68.6122 12.2267 68.5422 12.11 68.4022 12.054C68.2622 11.998 68.0942 11.97 67.8982 11.97C67.8142 11.97 67.7256 11.9747 67.6322 11.984C67.5389 11.9933 67.4456 12.0027 67.3522 12.012L67.6742 11.564C67.7396 11.592 67.8842 11.6153 68.1082 11.634C68.3416 11.6433 68.5889 11.648 68.8502 11.648C69.1116 11.648 69.3262 11.648 69.4942 11.648C69.8022 11.648 70.1289 11.6433 70.4742 11.634C70.8196 11.6247 71.1416 11.6013 71.4402 11.564L71.1742 11.956C70.8662 11.956 70.5582 12.04 70.2502 12.208C69.7462 12.516 68.8736 13.944 67.6322 16.492C66.4749 18.872 65.7749 20.5193 65.5322 21.434L65.3082 21.532ZM72.1987 13.174C72.0681 13.174 71.9047 13.0853 71.7087 12.908C71.5407 12.74 71.4567 12.6047 71.4567 12.502C71.4661 12.4087 71.6294 12.2407 71.9467 11.998C72.1801 11.8207 72.3341 11.732 72.4087 11.732C72.4554 11.732 72.5207 11.7647 72.6047 11.83C72.6981 11.8953 72.8101 11.9607 72.9407 12.026C73.0807 12.0913 73.2394 12.124 73.4167 12.124L73.4727 12.334C73.3234 12.4553 73.1601 12.5813 72.9827 12.712C72.8147 12.8427 72.6607 12.9547 72.5207 13.048C72.3807 13.132 72.2734 13.174 72.1987 13.174ZM69.6367 21.112L69.8467 20.706C70.7521 20.706 71.2701 20.5007 71.4007 20.09C71.4381 19.9593 71.4754 19.754 71.5127 19.474C71.5501 19.194 71.5827 18.8813 71.6107 18.536C71.6387 18.1813 71.6621 17.8267 71.6807 17.472C71.7087 17.1173 71.7274 16.7953 71.7367 16.506C71.7554 16.2073 71.7647 15.9833 71.7647 15.834C71.7647 15.5073 71.7507 15.2553 71.7227 15.078C71.7041 14.8913 71.6387 14.7607 71.5267 14.686C71.4241 14.6113 71.2514 14.574 71.0087 14.574C70.8314 14.574 70.6307 14.602 70.4067 14.658L70.6167 14.252C70.7754 14.2707 70.9807 14.2847 71.2327 14.294C71.4941 14.3033 71.7787 14.308 72.0867 14.308C72.2174 14.308 72.3714 14.294 72.5487 14.266C72.7261 14.238 72.8334 14.224 72.8707 14.224C73.0014 14.224 73.0667 14.28 73.0667 14.392C73.0667 14.4387 73.0574 14.4947 73.0387 14.56C73.0201 14.6253 73.0014 14.7 72.9827 14.784C72.9454 14.9333 72.9034 15.1573 72.8567 15.456C72.8194 15.7547 72.7821 16.0907 72.7447 16.464C72.7074 16.8373 72.6747 17.2153 72.6467 17.598C72.6187 17.9713 72.5954 18.3213 72.5767 18.648C72.5581 18.9653 72.5487 19.222 72.5487 19.418C72.5487 19.81 72.5954 20.0947 72.6887 20.272C72.7821 20.4493 72.9407 20.5613 73.1647 20.608C73.3981 20.6453 73.7107 20.6687 74.1027 20.678L73.8787 21.112C73.6547 21.056 73.4121 21.014 73.1507 20.986C72.8894 20.958 72.5861 20.944 72.2407 20.944C71.8861 20.944 71.5081 20.958 71.1067 20.986C70.7054 21.014 70.2154 21.056 69.6367 21.112ZM77.3958 21.168C76.4158 21.168 75.7391 20.9347 75.3658 20.468C75.0018 20.0013 74.8198 19.3107 74.8198 18.396C74.8198 17.9013 74.8665 17.402 74.9598 16.898C75.0625 16.394 75.2258 15.9553 75.4498 15.582C75.9818 14.6393 76.9711 14.168 78.4178 14.168C79.2578 14.168 79.8785 14.3687 80.2798 14.77C80.6625 15.1527 80.8258 15.6707 80.7698 16.324C80.7325 16.38 80.6765 16.4547 80.6018 16.548C80.5271 16.632 80.4338 16.7393 80.3218 16.87C80.2005 17.0287 80.0931 17.1547 79.9998 17.248C79.9158 17.332 79.8505 17.3693 79.8038 17.36C79.7011 17.3507 79.5891 17.346 79.4678 17.346C79.3558 17.3367 79.2391 17.332 79.1178 17.332C78.9031 17.332 78.7071 17.3367 78.5298 17.346C78.3525 17.346 78.1705 17.346 77.9838 17.346C77.7878 17.346 77.5545 17.3507 77.2838 17.36C77.0131 17.3693 76.7611 17.3833 76.5278 17.402C76.2945 17.4113 76.1311 17.4207 76.0378 17.43C76.0098 17.8033 75.9958 18.1393 75.9958 18.438C75.9958 19.1567 76.1218 19.698 76.3738 20.062C76.6351 20.426 77.1205 20.608 77.8298 20.608C79.0618 20.608 79.8318 20.0433 80.1398 18.914C80.1491 18.8673 80.1538 18.8253 80.1538 18.788C80.1538 18.7507 80.1585 18.7227 80.1678 18.704L80.5878 18.508C80.5785 18.592 80.5598 18.718 80.5318 18.886C80.5131 19.054 80.4898 19.278 80.4618 19.558C80.4618 19.6513 80.4618 19.754 80.4618 19.866C80.4618 19.978 80.4571 20.104 80.4478 20.244C80.4198 20.3653 80.3451 20.4727 80.2238 20.566C80.0091 20.7713 79.6591 20.9207 79.1738 21.014C78.6978 21.1167 78.1051 21.168 77.3958 21.168ZM77.0458 16.8C77.1485 16.8 77.2605 16.8 77.3818 16.8C77.5125 16.8 77.6478 16.7953 77.7878 16.786C78.1798 16.7767 78.5158 16.7627 78.7958 16.744C79.0851 16.7253 79.3185 16.7067 79.4958 16.688C79.6451 16.66 79.7338 16.5247 79.7618 16.282C79.7618 15.778 79.6265 15.3907 79.3558 15.12C79.0851 14.84 78.6978 14.7 78.1938 14.7C77.2138 14.7 76.5745 15.148 76.2758 16.044C76.2385 16.1747 76.2058 16.2913 76.1778 16.394C76.1591 16.4967 76.1405 16.6133 76.1218 16.744C76.2151 16.7627 76.3365 16.7767 76.4858 16.786C76.6445 16.7953 76.8311 16.8 77.0458 16.8ZM84.6972 21.294C84.6879 21.2473 84.6459 21.1727 84.5712 21.07C84.4966 20.9673 84.4032 20.8507 84.2912 20.72C84.1886 20.5987 84.0999 20.4867 84.0252 20.384C83.9599 20.2813 83.9179 20.188 83.8992 20.104C83.8526 19.88 83.7779 19.5673 83.6752 19.166C83.5726 18.7647 83.4512 18.3307 83.3112 17.864C83.1806 17.3973 83.0452 16.9493 82.9052 16.52C82.7652 16.0813 82.6299 15.708 82.4992 15.4C82.3779 15.092 82.2752 14.9053 82.1912 14.84C82.1072 14.7653 81.9812 14.714 81.8132 14.686C81.6452 14.6487 81.4912 14.63 81.3512 14.63C81.2486 14.63 81.1599 14.6393 81.0852 14.658L81.0152 14.574L81.1832 14.252C81.2112 14.2613 81.3139 14.2753 81.4912 14.294C81.6686 14.3033 81.8692 14.3173 82.0932 14.336C82.3266 14.3453 82.5319 14.3547 82.7092 14.364C82.8959 14.3733 83.0079 14.378 83.0452 14.378C83.3346 14.378 83.6472 14.3687 83.9832 14.35C84.3286 14.322 84.7019 14.2847 85.1032 14.238L84.8092 14.658C84.5199 14.658 84.2679 14.6907 84.0532 14.756C83.8479 14.812 83.7452 14.9147 83.7452 15.064C83.7266 15.3253 83.8106 15.82 83.9972 16.548C84.1932 17.2667 84.5059 18.2513 84.9352 19.502C85.1219 19.1193 85.2992 18.746 85.4672 18.382C85.6352 18.018 85.8079 17.612 85.9852 17.164C86.3399 16.3053 86.5499 15.68 86.6152 15.288C86.5126 15.0453 86.4239 14.896 86.3492 14.84C86.2652 14.7653 86.1392 14.714 85.9712 14.686C85.8032 14.6487 85.6492 14.63 85.5092 14.63C85.4066 14.63 85.3179 14.6393 85.2432 14.658L85.1732 14.574L85.3412 14.252C85.3692 14.2613 85.4719 14.2753 85.6492 14.294C85.8266 14.3033 86.0272 14.3173 86.2512 14.336C86.4846 14.3453 86.6899 14.3547 86.8672 14.364C87.0539 14.3733 87.1659 14.378 87.2032 14.378C87.4926 14.378 87.8052 14.3687 88.1412 14.35C88.4866 14.322 88.8599 14.2847 89.2612 14.238L88.9672 14.658C88.6779 14.658 88.4259 14.6907 88.2112 14.756C88.0059 14.812 87.9032 14.9147 87.9032 15.064C87.8846 15.3253 87.9686 15.82 88.1552 16.548C88.3512 17.2667 88.6639 18.2513 89.0932 19.502C89.2799 19.1193 89.4572 18.746 89.6252 18.382C89.7932 18.018 89.9659 17.612 90.1432 17.164C90.3579 16.6413 90.5212 16.2073 90.6332 15.862C90.7452 15.5073 90.8012 15.2367 90.8012 15.05C90.8012 14.8913 90.7172 14.784 90.5492 14.728C90.3812 14.672 90.2039 14.644 90.0172 14.644C89.9612 14.644 89.9052 14.6487 89.8492 14.658C89.8026 14.658 89.7559 14.6627 89.7092 14.672L89.6532 14.588L89.8912 14.266C89.9099 14.266 90.0219 14.2753 90.2272 14.294C90.4419 14.3033 90.6799 14.3173 90.9412 14.336C91.2026 14.3453 91.4126 14.35 91.5712 14.35C91.8139 14.35 92.1172 14.3407 92.4812 14.322C92.8452 14.294 93.1532 14.266 93.4052 14.238L93.1532 14.616C93.0226 14.616 92.8826 14.6347 92.7332 14.672C92.5839 14.7093 92.4206 14.7747 92.2432 14.868C91.7672 15.1573 91.1606 16.1047 90.4232 17.71C89.7699 19.0913 89.3266 20.258 89.0932 21.21L88.8552 21.294C88.8459 21.2473 88.8039 21.1727 88.7292 21.07C88.6546 20.9673 88.5612 20.8507 88.4492 20.72C88.3466 20.5987 88.2579 20.4867 88.1832 20.384C88.1179 20.2813 88.0759 20.188 88.0572 20.104C88.0106 19.8613 87.9312 19.5253 87.8192 19.096C87.7072 18.6573 87.5766 18.186 87.4272 17.682C87.2872 17.178 87.1426 16.7113 86.9932 16.282C86.8719 16.478 86.7506 16.6973 86.6292 16.94C86.5172 17.1827 86.3959 17.4393 86.2652 17.71C85.6119 19.0913 85.1686 20.258 84.9352 21.21L84.6972 21.294ZM2.42782 38.182C1.73715 38.182 1.21449 38.0887 0.85982 37.902C0.785154 37.8647 0.74782 37.79 0.74782 37.678C0.794487 37.286 0.83182 36.936 0.85982 36.628C0.897154 36.3107 0.920487 36.0307 0.92982 35.788L1.33582 35.634C1.28915 36.2873 1.27515 36.67 1.29382 36.782C1.33115 36.9593 1.43849 37.118 1.61582 37.258C1.79315 37.3887 2.00782 37.4913 2.25982 37.566C2.51182 37.6407 2.74982 37.678 2.97382 37.678C3.52449 37.678 3.96782 37.5147 4.30382 37.188C4.63982 36.852 4.80782 36.39 4.80782 35.802C4.80782 35.326 4.67249 34.9247 4.40182 34.598C4.14049 34.2713 3.81849 33.9867 3.43582 33.744C3.00649 33.4733 2.63315 33.2353 2.31582 33.03C2.00782 32.8247 1.76982 32.5913 1.60182 32.33C1.43382 32.0687 1.34982 31.7187 1.34982 31.28C1.34982 30.7947 1.49449 30.3513 1.78382 29.95C2.07315 29.5393 2.45582 29.2127 2.93182 28.97C3.41715 28.718 3.94449 28.592 4.51382 28.592H4.52782C4.76115 28.592 5.00382 28.6153 5.25582 28.662C5.50782 28.7087 5.72249 28.774 5.89982 28.858C6.08649 28.942 6.17982 29.0493 6.17982 29.18C6.04915 29.4693 5.94649 29.7633 5.87182 30.062C5.80649 30.3607 5.76449 30.6593 5.74582 30.958L5.33982 30.79C5.43315 30.6313 5.47982 30.3887 5.47982 30.062C5.47982 29.7073 5.33982 29.4553 5.05982 29.306C4.77982 29.1567 4.47182 29.082 4.13582 29.082C3.62249 29.082 3.20715 29.2453 2.88982 29.572C2.58182 29.8893 2.42782 30.314 2.42782 30.846C2.42782 31.1727 2.50715 31.4527 2.66582 31.686C2.82449 31.91 3.02049 32.106 3.25382 32.274C3.49649 32.4327 3.72982 32.582 3.95382 32.722C4.44849 33.03 4.84515 33.3147 5.14382 33.576C5.45182 33.828 5.67115 34.0893 5.80182 34.36C5.94182 34.6213 6.01182 34.9293 6.01182 35.284C6.01182 35.9093 5.85315 36.4367 5.53582 36.866C5.22782 37.2953 4.80315 37.622 4.26182 37.846C3.72982 38.07 3.11849 38.182 2.42782 38.182ZM10.096 38.168C9.11599 38.168 8.43933 37.9347 8.06599 37.468C7.70199 37.0013 7.51999 36.3107 7.51999 35.396C7.51999 34.9013 7.56666 34.402 7.65999 33.898C7.76266 33.394 7.92599 32.9553 8.14999 32.582C8.68199 31.6393 9.67133 31.168 11.118 31.168C11.958 31.168 12.5787 31.3687 12.98 31.77C13.3627 32.1527 13.526 32.6707 13.47 33.324C13.4327 33.38 13.3767 33.4547 13.302 33.548C13.2273 33.632 13.134 33.7393 13.022 33.87C12.9007 34.0287 12.7933 34.1547 12.7 34.248C12.616 34.332 12.5507 34.3693 12.504 34.36C12.4013 34.3507 12.2893 34.346 12.168 34.346C12.056 34.3367 11.9393 34.332 11.818 34.332C11.6033 34.332 11.4073 34.3367 11.23 34.346C11.0527 34.346 10.8707 34.346 10.684 34.346C10.488 34.346 10.2547 34.3507 9.98399 34.36C9.71333 34.3693 9.46133 34.3833 9.22799 34.402C8.99466 34.4113 8.83133 34.4207 8.73799 34.43C8.70999 34.8033 8.69599 35.1393 8.69599 35.438C8.69599 36.1567 8.82199 36.698 9.07399 37.062C9.33533 37.426 9.82066 37.608 10.53 37.608C11.762 37.608 12.532 37.0433 12.84 35.914C12.8493 35.8673 12.854 35.8253 12.854 35.788C12.854 35.7507 12.8587 35.7227 12.868 35.704L13.288 35.508C13.2787 35.592 13.26 35.718 13.232 35.886C13.2133 36.054 13.19 36.278 13.162 36.558C13.162 36.6513 13.162 36.754 13.162 36.866C13.162 36.978 13.1573 37.104 13.148 37.244C13.12 37.3653 13.0453 37.4727 12.924 37.566C12.7093 37.7713 12.3593 37.9207 11.874 38.014C11.398 38.1167 10.8053 38.168 10.096 38.168ZM9.74599 33.8C9.84866 33.8 9.96066 33.8 10.082 33.8C10.2127 33.8 10.348 33.7953 10.488 33.786C10.88 33.7767 11.216 33.7627 11.496 33.744C11.7853 33.7253 12.0187 33.7067 12.196 33.688C12.3453 33.66 12.434 33.5247 12.462 33.282C12.462 32.778 12.3267 32.3907 12.056 32.12C11.7853 31.84 11.398 31.7 10.894 31.7C9.91399 31.7 9.27466 32.148 8.97599 33.044C8.93866 33.1747 8.90599 33.2913 8.87799 33.394C8.85933 33.4967 8.84066 33.6133 8.82199 33.744C8.91533 33.7627 9.03666 33.7767 9.18599 33.786C9.34466 33.7953 9.53133 33.8 9.74599 33.8ZM17.3694 38.168C16.3894 38.168 15.7128 37.9347 15.3394 37.468C14.9754 37.0013 14.7934 36.3107 14.7934 35.396C14.7934 34.9013 14.8401 34.402 14.9334 33.898C15.0361 33.394 15.1994 32.9553 15.4234 32.582C15.9554 31.6393 16.9448 31.168 18.3914 31.168C19.2314 31.168 19.8521 31.3687 20.2534 31.77C20.6361 32.1527 20.7994 32.6707 20.7434 33.324C20.7061 33.38 20.6501 33.4547 20.5754 33.548C20.5008 33.632 20.4074 33.7393 20.2954 33.87C20.1741 34.0287 20.0668 34.1547 19.9734 34.248C19.8894 34.332 19.8241 34.3693 19.7774 34.36C19.6748 34.3507 19.5628 34.346 19.4414 34.346C19.3294 34.3367 19.2128 34.332 19.0914 34.332C18.8768 34.332 18.6808 34.3367 18.5034 34.346C18.3261 34.346 18.1441 34.346 17.9574 34.346C17.7614 34.346 17.5281 34.3507 17.2574 34.36C16.9868 34.3693 16.7348 34.3833 16.5014 34.402C16.2681 34.4113 16.1048 34.4207 16.0114 34.43C15.9834 34.8033 15.9694 35.1393 15.9694 35.438C15.9694 36.1567 16.0954 36.698 16.3474 37.062C16.6088 37.426 17.0941 37.608 17.8034 37.608C19.0354 37.608 19.8054 37.0433 20.1134 35.914C20.1228 35.8673 20.1274 35.8253 20.1274 35.788C20.1274 35.7507 20.1321 35.7227 20.1414 35.704L20.5614 35.508C20.5521 35.592 20.5334 35.718 20.5054 35.886C20.4868 36.054 20.4634 36.278 20.4354 36.558C20.4354 36.6513 20.4354 36.754 20.4354 36.866C20.4354 36.978 20.4308 37.104 20.4214 37.244C20.3934 37.3653 20.3188 37.4727 20.1974 37.566C19.9828 37.7713 19.6328 37.9207 19.1474 38.014C18.6714 38.1167 18.0788 38.168 17.3694 38.168ZM17.0194 33.8C17.1221 33.8 17.2341 33.8 17.3554 33.8C17.4861 33.8 17.6214 33.7953 17.7614 33.786C18.1534 33.7767 18.4894 33.7627 18.7694 33.744C19.0588 33.7253 19.2921 33.7067 19.4694 33.688C19.6188 33.66 19.7074 33.5247 19.7354 33.282C19.7354 32.778 19.6001 32.3907 19.3294 32.12C19.0588 31.84 18.6714 31.7 18.1674 31.7C17.1874 31.7 16.5481 32.148 16.2494 33.044C16.2121 33.1747 16.1794 33.2913 16.1514 33.394C16.1328 33.4967 16.1141 33.6133 16.0954 33.744C16.1888 33.7627 16.3101 33.7767 16.4594 33.786C16.6181 33.7953 16.8048 33.8 17.0194 33.8ZM22.1369 40.352V40.17C22.1369 40.0767 22.1835 39.988 22.2769 39.904C22.7435 39.4093 22.9769 38.8447 22.9769 38.21C22.9769 38.014 22.9069 37.8413 22.7669 37.692C22.6175 37.5333 22.4355 37.4307 22.2209 37.384L22.2769 37.132C22.4355 37.104 22.6222 36.9967 22.8369 36.81L22.9909 36.642C23.0469 36.5767 23.0935 36.5487 23.1309 36.558C23.5602 36.614 23.7749 36.922 23.7749 37.482C23.7749 38.518 23.3269 39.4093 22.4309 40.156C22.3935 40.1933 22.3469 40.226 22.2909 40.254C22.2442 40.2913 22.1929 40.324 22.1369 40.352ZM33.8787 38.588C33.8787 38.56 33.846 38.504 33.7807 38.42C33.7247 38.336 33.664 38.2473 33.5987 38.154C33.5334 38.0607 33.482 37.9953 33.4447 37.958C33.23 37.706 33.104 37.496 33.0667 37.328C33.0574 37.2533 33.02 37.09 32.9547 36.838C32.8894 36.5767 32.8147 36.278 32.7307 35.942C32.6467 35.5967 32.5627 35.2653 32.4787 34.948C32.404 34.6307 32.3387 34.3787 32.2827 34.192C32.152 33.716 31.9887 33.1373 31.7927 32.456C31.606 31.7653 31.382 30.9813 31.1207 30.104C31.0367 30.5893 30.9574 31.0747 30.8827 31.56C30.808 32.0453 30.7334 32.5307 30.6587 33.016C30.5654 33.6973 30.486 34.2853 30.4207 34.78C30.3647 35.2747 30.3274 35.676 30.3087 35.984C30.2994 36.1053 30.29 36.2173 30.2807 36.32C30.2807 36.4133 30.2807 36.5067 30.2807 36.6C30.2807 36.908 30.318 37.1413 30.3927 37.3C30.4767 37.4587 30.6167 37.566 30.8127 37.622C31.018 37.6687 31.3027 37.692 31.6667 37.692L31.4427 38.112C31.4147 38.1027 31.298 38.084 31.0927 38.056C30.8874 38.0373 30.6494 38.0187 30.3787 38C30.1174 37.972 29.8887 37.958 29.6927 37.958C29.4594 37.958 29.2167 37.972 28.9647 38C28.722 38.0187 28.5027 38.0467 28.3067 38.084C28.12 38.1213 27.994 38.154 27.9287 38.182L28.1807 37.748C28.7594 37.748 29.0954 37.5753 29.1887 37.23C29.3847 36.5113 29.5527 35.8113 29.6927 35.13C29.8327 34.4393 29.954 33.744 30.0567 33.044L30.6167 29.334C30.6074 29.1473 30.5374 29.026 30.4067 28.97C30.276 28.9047 30.1267 28.872 29.9587 28.872C29.884 28.872 29.8094 28.8767 29.7347 28.886C29.66 28.886 29.5854 28.8907 29.5107 28.9L29.7207 28.48C30.0194 28.536 30.388 28.578 30.8267 28.606C31.2747 28.6247 31.718 28.6293 32.1567 28.62C32.1474 28.732 32.152 28.8953 32.1707 29.11C32.1987 29.3153 32.2454 29.5953 32.3107 29.95C32.4227 30.5287 32.5674 31.1727 32.7447 31.882C32.922 32.582 33.1367 33.3473 33.3887 34.178C33.4634 34.43 33.552 34.752 33.6547 35.144C33.7667 35.5267 33.9114 36.0213 34.0887 36.628C34.3407 36.1147 34.616 35.5313 34.9147 34.878C35.2134 34.2247 35.5587 33.4407 35.9507 32.526C36.4174 31.4527 36.772 30.594 37.0147 29.95C37.2574 29.306 37.3834 28.872 37.3927 28.648C37.8594 28.6387 38.3307 28.6293 38.8067 28.62C39.292 28.6013 39.852 28.5407 40.4867 28.438L40.1927 28.844C40.1554 28.8347 40.1134 28.83 40.0667 28.83C40.0294 28.8207 39.9874 28.816 39.9407 28.816C39.7914 28.816 39.6514 28.8393 39.5207 28.886C39.39 28.9327 39.2967 28.9933 39.2407 29.068C39.166 29.1707 39.1147 29.3107 39.0867 29.488C39.068 29.6653 39.0494 29.8987 39.0307 30.188C39.012 30.5147 38.9934 30.9253 38.9747 31.42C38.9654 31.9147 38.9607 32.4373 38.9607 32.988C38.9607 33.52 38.9654 34.0567 38.9747 34.598C38.9934 35.13 39.0167 35.62 39.0447 36.068C39.0727 36.5067 39.1054 36.8613 39.1427 37.132C39.18 37.3373 39.3154 37.482 39.5487 37.566C39.7914 37.65 40.048 37.692 40.3187 37.692C40.384 37.692 40.4447 37.692 40.5007 37.692C40.5567 37.692 40.6127 37.6873 40.6687 37.678L40.4447 38.098C40.3514 38.0793 40.1087 38.0513 39.7167 38.014C39.3247 37.986 38.858 37.972 38.3167 37.972C38.0834 37.972 37.808 37.9813 37.4907 38C37.1734 38.0187 36.8747 38.0373 36.5947 38.056C36.324 38.084 36.128 38.1073 36.0067 38.126L36.2167 37.72C36.2634 37.7293 36.31 37.7387 36.3567 37.748C36.4127 37.748 36.4687 37.748 36.5247 37.748C36.8047 37.748 37.0707 37.692 37.3227 37.58C37.584 37.4587 37.7334 37.2953 37.7707 37.09C37.808 36.8473 37.8314 36.488 37.8407 36.012C37.8594 35.536 37.8687 34.9993 37.8687 34.402C37.8687 33.9073 37.864 33.3987 37.8547 32.876C37.8454 32.3533 37.836 31.8447 37.8267 31.35C37.8174 30.846 37.8034 30.3933 37.7847 29.992C37.5794 30.4027 37.3694 30.8273 37.1547 31.266C36.94 31.6953 36.7394 32.106 36.5527 32.498C36.3754 32.89 36.2214 33.226 36.0907 33.506C35.652 34.4673 35.2927 35.2747 35.0127 35.928C34.742 36.5813 34.5367 37.1133 34.3967 37.524C34.2567 37.9253 34.1587 38.238 34.1027 38.462L33.8787 38.588ZM46.0296 38.154C45.7683 38.154 45.6003 38.0607 45.5256 37.874C45.451 37.6873 45.4136 37.3887 45.4136 36.978C45.2083 37.118 44.975 37.2767 44.7136 37.454C44.4616 37.622 44.1816 37.7713 43.8736 37.902C43.5656 38.0327 43.2296 38.098 42.8656 38.098C42.427 38.098 42.0723 37.93 41.8016 37.594C41.531 37.2487 41.3956 36.8193 41.3956 36.306C41.3956 35.9513 41.475 35.6947 41.6336 35.536C41.8016 35.3773 41.9696 35.2373 42.1376 35.116C42.231 35.0507 42.357 34.9573 42.5156 34.836C42.6743 34.7147 42.8376 34.598 43.0056 34.486C43.183 34.3647 43.3276 34.2807 43.4396 34.234C43.5796 34.178 43.7803 34.136 44.0416 34.108C44.3123 34.0707 44.5923 34.0427 44.8816 34.024C45.1803 34.0053 45.437 33.996 45.6516 33.996C45.6796 33.7253 45.6936 33.478 45.6936 33.254C45.6936 32.7967 45.619 32.442 45.4696 32.19C45.3203 31.938 45.059 31.812 44.6856 31.812C44.0696 31.812 43.5563 31.98 43.1456 32.316C42.9403 32.4933 42.777 32.6707 42.6556 32.848C42.5343 33.016 42.4736 33.254 42.4736 33.562L42.4876 33.968L42.1096 34.234C42.1096 34.1873 42.1096 34.1407 42.1096 34.094C42.119 34.038 42.1236 33.9913 42.1236 33.954C42.1236 33.8047 42.1143 33.66 42.0956 33.52C42.077 33.3707 42.049 33.2027 42.0116 33.016C41.9836 32.8573 41.9603 32.7453 41.9416 32.68C41.9323 32.6147 41.9276 32.568 41.9276 32.54C41.9276 32.428 41.993 32.3067 42.1236 32.176C42.2636 32.0453 42.3803 31.9473 42.4736 31.882C42.819 31.658 43.2296 31.504 43.7056 31.42C44.191 31.3267 44.6483 31.28 45.0776 31.28C45.703 31.28 46.151 31.4153 46.4216 31.686C46.6923 31.9473 46.8276 32.288 46.8276 32.708C46.8276 33.0253 46.8136 33.3893 46.7856 33.8C46.767 34.2013 46.7436 34.6073 46.7156 35.018C46.697 35.4287 46.6736 35.8113 46.6456 36.166C46.627 36.5113 46.6176 36.796 46.6176 37.02C46.6176 37.272 46.6923 37.4447 46.8416 37.538C46.991 37.622 47.1916 37.664 47.4436 37.664C47.509 37.664 47.5743 37.664 47.6396 37.664C47.7143 37.6547 47.789 37.6453 47.8636 37.636L47.9336 37.72L47.7096 38.098C47.635 38.0887 47.5136 38.084 47.3456 38.084C47.1776 38.0933 47.0003 38.1027 46.8136 38.112C46.627 38.1213 46.459 38.1307 46.3096 38.14C46.1696 38.1493 46.0763 38.154 46.0296 38.154ZM43.5656 37.188C43.771 37.188 43.9903 37.1507 44.2236 37.076C44.457 36.992 44.6576 36.9033 44.8256 36.81C45.0683 36.642 45.2316 36.4693 45.3156 36.292C45.409 36.1147 45.4696 35.8953 45.4976 35.634C45.5256 35.3633 45.5583 35.0227 45.5956 34.612C45.0356 34.6307 44.5736 34.668 44.2096 34.724C43.855 34.7707 43.5703 34.8313 43.3556 34.906C43.0476 35.018 42.819 35.186 42.6696 35.41C42.5203 35.634 42.4456 35.8673 42.4456 36.11C42.4456 36.39 42.539 36.642 42.7256 36.866C42.9216 37.0807 43.2016 37.188 43.5656 37.188ZM52.5946 38.112L52.8606 37.65C53.0193 37.6593 53.192 37.6267 53.3786 37.552C53.5653 37.468 53.6913 37.3467 53.7566 37.188C53.8126 37.076 53.8546 36.922 53.8826 36.726C53.92 36.53 53.9526 36.2873 53.9806 35.998C54.0273 35.3633 54.06 34.8687 54.0786 34.514C54.1066 34.1593 54.1253 33.898 54.1346 33.73C54.144 33.562 54.1486 33.436 54.1486 33.352C54.1486 32.3067 53.8033 31.784 53.1126 31.784C52.8886 31.784 52.6786 31.8167 52.4826 31.882C52.296 31.9473 52.1093 32.0267 51.9226 32.12C51.54 32.316 51.2506 32.5307 51.0546 32.764L50.9566 34.15C50.9193 34.6913 50.8913 35.1627 50.8726 35.564C50.8633 35.9653 50.8586 36.3013 50.8586 36.572C50.8586 36.6933 50.8586 36.8007 50.8586 36.894C50.8586 36.978 50.8633 37.0527 50.8726 37.118C50.91 37.5007 51.2693 37.6873 51.9506 37.678L51.7266 38.098C51.5026 38.0047 51.008 37.9533 50.2426 37.944C50.168 37.944 49.9346 37.958 49.5426 37.986C49.16 38.014 48.6233 38.0513 47.9326 38.098L48.1426 37.706C49.0386 37.706 49.5473 37.51 49.6686 37.118C49.7153 36.9593 49.7666 36.6373 49.8226 36.152C49.8786 35.6667 49.9393 34.9947 50.0046 34.136C50.0233 33.8933 50.0373 33.6693 50.0466 33.464C50.056 33.2493 50.0606 33.0533 50.0606 32.876C50.0606 32.484 50.042 32.1947 50.0046 32.008C49.9673 31.8213 49.8693 31.7047 49.7106 31.658C49.5613 31.602 49.314 31.574 48.9686 31.574C48.8566 31.574 48.7586 31.5787 48.6746 31.588C48.5906 31.5973 48.5113 31.616 48.4366 31.644L48.6746 31.224C48.7026 31.2333 48.838 31.2473 49.0806 31.266C49.3326 31.2753 49.6313 31.28 49.9766 31.28C50.1913 31.28 50.3966 31.2753 50.5926 31.266C50.798 31.2473 50.952 31.238 51.0546 31.238C51.1946 31.238 51.2646 31.308 51.2646 31.448C51.2646 31.5227 51.2413 31.644 51.1946 31.812C51.148 31.9707 51.1246 32.078 51.1246 32.134C51.2926 32.0313 51.4466 31.9427 51.5866 31.868C51.736 31.784 51.8713 31.7 51.9926 31.616C52.478 31.2707 53.024 31.098 53.6306 31.098C53.7986 31.098 53.9526 31.112 54.0926 31.14C54.8673 31.252 55.2546 31.616 55.2546 32.232C55.2546 32.3907 55.2453 32.5727 55.2266 32.778C55.208 32.9833 55.194 33.2073 55.1846 33.45C55.1753 33.5433 55.1613 33.73 55.1426 34.01C55.1333 34.2807 55.1193 34.584 55.1006 34.92C55.0913 35.2467 55.082 35.5407 55.0726 35.802C55.0633 36.0633 55.0586 36.2313 55.0586 36.306C55.0586 36.7167 55.0773 37.02 55.1146 37.216C55.1613 37.412 55.278 37.538 55.4646 37.594C55.6513 37.65 55.95 37.6827 56.3606 37.692C56.5566 37.692 56.7013 37.6827 56.7946 37.664L56.5566 38.084C56.202 38.0467 55.8566 38.0187 55.5206 38C55.1846 37.9813 54.858 37.972 54.5406 37.972C54.2793 37.9813 53.9853 37.9953 53.6586 38.014C53.332 38.0327 52.9773 38.0653 52.5946 38.112ZM61.9984 38.154C61.737 38.154 61.569 38.0607 61.4944 37.874C61.4197 37.6873 61.3824 37.3887 61.3824 36.978C61.177 37.118 60.9437 37.2767 60.6824 37.454C60.4304 37.622 60.1504 37.7713 59.8424 37.902C59.5344 38.0327 59.1984 38.098 58.8344 38.098C58.3957 38.098 58.041 37.93 57.7704 37.594C57.4997 37.2487 57.3644 36.8193 57.3644 36.306C57.3644 35.9513 57.4437 35.6947 57.6024 35.536C57.7704 35.3773 57.9384 35.2373 58.1064 35.116C58.1997 35.0507 58.3257 34.9573 58.4844 34.836C58.643 34.7147 58.8064 34.598 58.9744 34.486C59.1517 34.3647 59.2964 34.2807 59.4084 34.234C59.5484 34.178 59.749 34.136 60.0104 34.108C60.281 34.0707 60.561 34.0427 60.8504 34.024C61.149 34.0053 61.4057 33.996 61.6204 33.996C61.6484 33.7253 61.6624 33.478 61.6624 33.254C61.6624 32.7967 61.5877 32.442 61.4384 32.19C61.289 31.938 61.0277 31.812 60.6544 31.812C60.0384 31.812 59.525 31.98 59.1144 32.316C58.909 32.4933 58.7457 32.6707 58.6244 32.848C58.503 33.016 58.4424 33.254 58.4424 33.562L58.4564 33.968L58.0784 34.234C58.0784 34.1873 58.0784 34.1407 58.0784 34.094C58.0877 34.038 58.0924 33.9913 58.0924 33.954C58.0924 33.8047 58.083 33.66 58.0644 33.52C58.0457 33.3707 58.0177 33.2027 57.9804 33.016C57.9524 32.8573 57.929 32.7453 57.9104 32.68C57.901 32.6147 57.8964 32.568 57.8964 32.54C57.8964 32.428 57.9617 32.3067 58.0924 32.176C58.2324 32.0453 58.349 31.9473 58.4424 31.882C58.7877 31.658 59.1984 31.504 59.6744 31.42C60.1597 31.3267 60.617 31.28 61.0464 31.28C61.6717 31.28 62.1197 31.4153 62.3904 31.686C62.661 31.9473 62.7964 32.288 62.7964 32.708C62.7964 33.0253 62.7824 33.3893 62.7544 33.8C62.7357 34.2013 62.7124 34.6073 62.6844 35.018C62.6657 35.4287 62.6424 35.8113 62.6144 36.166C62.5957 36.5113 62.5864 36.796 62.5864 37.02C62.5864 37.272 62.661 37.4447 62.8104 37.538C62.9597 37.622 63.1604 37.664 63.4124 37.664C63.4777 37.664 63.543 37.664 63.6084 37.664C63.683 37.6547 63.7577 37.6453 63.8324 37.636L63.9024 37.72L63.6784 38.098C63.6037 38.0887 63.4824 38.084 63.3144 38.084C63.1464 38.0933 62.969 38.1027 62.7824 38.112C62.5957 38.1213 62.4277 38.1307 62.2784 38.14C62.1384 38.1493 62.045 38.154 61.9984 38.154ZM59.5344 37.188C59.7397 37.188 59.959 37.1507 60.1924 37.076C60.4257 36.992 60.6264 36.9033 60.7944 36.81C61.037 36.642 61.2004 36.4693 61.2844 36.292C61.3777 36.1147 61.4384 35.8953 61.4664 35.634C61.4944 35.3633 61.527 35.0227 61.5644 34.612C61.0044 34.6307 60.5424 34.668 60.1784 34.724C59.8237 34.7707 59.539 34.8313 59.3244 34.906C59.0164 35.018 58.7877 35.186 58.6384 35.41C58.489 35.634 58.4144 35.8673 58.4144 36.11C58.4144 36.39 58.5077 36.642 58.6944 36.866C58.8904 37.0807 59.1704 37.188 59.5344 37.188ZM66.1974 40.394C65.32 40.394 64.704 40.296 64.3494 40.1C64.004 39.904 63.8314 39.6053 63.8314 39.204C63.8314 38.4387 64.3074 37.7993 65.2594 37.286C65.2314 37.286 65.2034 37.286 65.1754 37.286C65.1567 37.286 65.1334 37.286 65.1054 37.286C64.8534 37.286 64.6574 37.1227 64.5174 36.796C64.4334 36.572 64.3914 36.3527 64.3914 36.138C64.3914 35.8767 64.4707 35.7087 64.6294 35.634C64.9 35.5313 65.1334 35.424 65.3294 35.312C65.5254 35.2 65.684 35.0833 65.8054 34.962C65.4227 34.626 65.2314 34.1453 65.2314 33.52C65.2314 32.7733 65.4554 32.204 65.9034 31.812C66.3607 31.4107 67.014 31.21 67.8634 31.21C68.358 31.21 68.778 31.308 69.1234 31.504H71.3774C71.452 31.504 71.4894 31.532 71.4894 31.588C71.4894 31.6627 71.4054 31.7607 71.2374 31.882C71.0787 32.0033 70.9434 32.064 70.8314 32.064C70.7847 32.064 70.6587 32.0547 70.4534 32.036C70.248 32.008 69.9774 31.9847 69.6414 31.966C69.8934 32.3113 70.0054 32.7547 69.9774 33.296C69.9307 33.996 69.6787 34.528 69.2214 34.892C68.7734 35.256 68.148 35.438 67.3454 35.438C67.1307 35.438 66.9207 35.4147 66.7154 35.368C66.5194 35.3213 66.328 35.2513 66.1414 35.158C65.964 35.242 65.796 35.368 65.6374 35.536C65.4694 35.732 65.3854 35.9 65.3854 36.04C65.3854 36.2267 65.5394 36.334 65.8474 36.362C66.2674 36.3993 66.6874 36.4273 67.1074 36.446C67.5274 36.4647 67.9474 36.474 68.3674 36.474C68.498 36.474 68.624 36.474 68.7454 36.474C68.876 36.4647 69.0067 36.46 69.1374 36.46C70.1547 36.46 70.6634 36.8193 70.6634 37.538C70.6634 37.9673 70.5187 38.3593 70.2294 38.714C69.94 39.0687 69.5667 39.3673 69.1094 39.61C68.652 39.862 68.1667 40.0533 67.6534 40.184C67.14 40.324 66.6547 40.394 66.1974 40.394ZM67.5834 35.06C68.0314 35.06 68.3674 34.906 68.5914 34.598C68.8247 34.29 68.9414 33.884 68.9414 33.38C68.9414 33.0907 68.8854 32.8107 68.7734 32.54C68.6707 32.2693 68.5214 32.0453 68.3254 31.868C68.1294 31.6813 67.896 31.588 67.6254 31.588C67.168 31.588 66.8274 31.7467 66.6034 32.064C66.3887 32.3813 66.2814 32.7873 66.2814 33.282C66.2814 33.674 66.3467 34.0053 66.4774 34.276C66.608 34.5373 66.7714 34.7333 66.9674 34.864C67.1727 34.9947 67.378 35.06 67.5834 35.06ZM66.3654 39.932C66.6734 39.932 67 39.8947 67.3454 39.82C67.6907 39.7547 68.0174 39.6567 68.3254 39.526C68.6894 39.3673 69.0114 39.1527 69.2914 38.882C69.5714 38.6113 69.7114 38.3407 69.7114 38.07C69.7114 37.7247 69.548 37.524 69.2214 37.468C68.7734 37.4027 68.12 37.3607 67.2614 37.342C67.0094 37.342 66.7714 37.342 66.5474 37.342C66.3327 37.3327 66.1274 37.3233 65.9314 37.314C65.166 37.5753 64.7554 38.056 64.6994 38.756C64.6807 39.1573 64.8347 39.4513 65.1614 39.638C65.4974 39.834 65.8987 39.932 66.3654 39.932ZM74.6136 38.168C73.6336 38.168 72.9569 37.9347 72.5836 37.468C72.2196 37.0013 72.0376 36.3107 72.0376 35.396C72.0376 34.9013 72.0842 34.402 72.1776 33.898C72.2802 33.394 72.4436 32.9553 72.6676 32.582C73.1996 31.6393 74.1889 31.168 75.6356 31.168C76.4756 31.168 77.0962 31.3687 77.4976 31.77C77.8802 32.1527 78.0436 32.6707 77.9876 33.324C77.9502 33.38 77.8942 33.4547 77.8196 33.548C77.7449 33.632 77.6516 33.7393 77.5396 33.87C77.4182 34.0287 77.3109 34.1547 77.2176 34.248C77.1336 34.332 77.0682 34.3693 77.0216 34.36C76.9189 34.3507 76.8069 34.346 76.6856 34.346C76.5736 34.3367 76.4569 34.332 76.3356 34.332C76.1209 34.332 75.9249 34.3367 75.7476 34.346C75.5702 34.346 75.3882 34.346 75.2016 34.346C75.0056 34.346 74.7722 34.3507 74.5016 34.36C74.2309 34.3693 73.9789 34.3833 73.7456 34.402C73.5122 34.4113 73.3489 34.4207 73.2556 34.43C73.2276 34.8033 73.2136 35.1393 73.2136 35.438C73.2136 36.1567 73.3396 36.698 73.5916 37.062C73.8529 37.426 74.3382 37.608 75.0476 37.608C76.2796 37.608 77.0496 37.0433 77.3576 35.914C77.3669 35.8673 77.3716 35.8253 77.3716 35.788C77.3716 35.7507 77.3762 35.7227 77.3856 35.704L77.8056 35.508C77.7962 35.592 77.7776 35.718 77.7496 35.886C77.7309 36.054 77.7076 36.278 77.6796 36.558C77.6796 36.6513 77.6796 36.754 77.6796 36.866C77.6796 36.978 77.6749 37.104 77.6656 37.244C77.6376 37.3653 77.5629 37.4727 77.4416 37.566C77.2269 37.7713 76.8769 37.9207 76.3916 38.014C75.9156 38.1167 75.3229 38.168 74.6136 38.168ZM74.2636 33.8C74.3662 33.8 74.4782 33.8 74.5996 33.8C74.7302 33.8 74.8656 33.7953 75.0056 33.786C75.3976 33.7767 75.7336 33.7627 76.0136 33.744C76.3029 33.7253 76.5362 33.7067 76.7136 33.688C76.8629 33.66 76.9516 33.5247 76.9796 33.282C76.9796 32.778 76.8442 32.3907 76.5736 32.12C76.3029 31.84 75.9156 31.7 75.4116 31.7C74.4316 31.7 73.7922 32.148 73.4936 33.044C73.4562 33.1747 73.4236 33.2913 73.3956 33.394C73.3769 33.4967 73.3582 33.6133 73.3396 33.744C73.4329 33.7627 73.5542 33.7767 73.7036 33.786C73.8622 33.7953 74.0489 33.8 74.2636 33.8ZM79.381 40.352V40.17C79.381 40.0767 79.4277 39.988 79.521 39.904C79.9877 39.4093 80.221 38.8447 80.221 38.21C80.221 38.014 80.151 37.8413 80.011 37.692C79.8617 37.5333 79.6797 37.4307 79.465 37.384L79.521 37.132C79.6797 37.104 79.8663 36.9967 80.081 36.81L80.235 36.642C80.291 36.5767 80.3377 36.5487 80.375 36.558C80.8043 36.614 81.019 36.922 81.019 37.482C81.019 38.518 80.571 39.4093 79.675 40.156C79.6377 40.1933 79.591 40.226 79.535 40.254C79.4883 40.2913 79.437 40.324 79.381 40.352ZM87.3849 38.182C86.6942 38.182 86.1715 38.0887 85.8169 37.902C85.7422 37.8647 85.7049 37.79 85.7049 37.678C85.7515 37.286 85.7889 36.936 85.8169 36.628C85.8542 36.3107 85.8775 36.0307 85.8869 35.788L86.2929 35.634C86.2462 36.2873 86.2322 36.67 86.2509 36.782C86.2882 36.9593 86.3955 37.118 86.5729 37.258C86.7502 37.3887 86.9649 37.4913 87.2169 37.566C87.4689 37.6407 87.7069 37.678 87.9309 37.678C88.4815 37.678 88.9249 37.5147 89.2609 37.188C89.5969 36.852 89.7649 36.39 89.7649 35.802C89.7649 35.326 89.6295 34.9247 89.3589 34.598C89.0975 34.2713 88.7755 33.9867 88.3929 33.744C87.9635 33.4733 87.5902 33.2353 87.2729 33.03C86.9649 32.8247 86.7269 32.5913 86.5589 32.33C86.3909 32.0687 86.3069 31.7187 86.3069 31.28C86.3069 30.7947 86.4515 30.3513 86.7409 29.95C87.0302 29.5393 87.4129 29.2127 87.8889 28.97C88.3742 28.718 88.9015 28.592 89.4709 28.592H89.4849C89.7182 28.592 89.9609 28.6153 90.2129 28.662C90.4649 28.7087 90.6795 28.774 90.8569 28.858C91.0435 28.942 91.1369 29.0493 91.1369 29.18C91.0062 29.4693 90.9035 29.7633 90.8289 30.062C90.7635 30.3607 90.7215 30.6593 90.7029 30.958L90.2969 30.79C90.3902 30.6313 90.4369 30.3887 90.4369 30.062C90.4369 29.7073 90.2969 29.4553 90.0169 29.306C89.7369 29.1567 89.4289 29.082 89.0929 29.082C88.5795 29.082 88.1642 29.2453 87.8469 29.572C87.5389 29.8893 87.3849 30.314 87.3849 30.846C87.3849 31.1727 87.4642 31.4527 87.6229 31.686C87.7815 31.91 87.9775 32.106 88.2109 32.274C88.4535 32.4327 88.6869 32.582 88.9109 32.722C89.4055 33.03 89.8022 33.3147 90.1009 33.576C90.4089 33.828 90.6282 34.0893 90.7589 34.36C90.8989 34.6213 90.9689 34.9293 90.9689 35.284C90.9689 35.9093 90.8102 36.4367 90.4929 36.866C90.1849 37.2953 89.7602 37.622 89.2189 37.846C88.6869 38.07 88.0755 38.182 87.3849 38.182ZM94.843 38.238C94.3764 38.238 93.989 38.1493 93.681 37.972C93.373 37.7947 93.219 37.496 93.219 37.076C93.219 36.88 93.2284 36.6093 93.247 36.264C93.2657 35.9187 93.289 35.5407 93.317 35.13C93.345 34.71 93.3684 34.2993 93.387 33.898C93.4057 33.4873 93.415 33.1187 93.415 32.792C93.415 32.6613 93.4104 32.54 93.401 32.428C93.401 32.316 93.3964 32.218 93.387 32.134C93.3497 31.798 93.065 31.63 92.533 31.63C92.449 31.63 92.3604 31.6347 92.267 31.644C92.183 31.6533 92.113 31.6627 92.057 31.672L92.295 31.252C92.6124 31.2893 92.925 31.3173 93.233 31.336C93.541 31.3547 93.8444 31.364 94.143 31.364C94.4417 31.364 94.731 31.3547 95.011 31.336C95.3004 31.3173 95.585 31.294 95.865 31.266L95.627 31.658C95.6084 31.658 95.585 31.658 95.557 31.658C95.5384 31.6487 95.5197 31.644 95.501 31.644C95.2304 31.644 95.025 31.728 94.885 31.896C94.745 32.0547 94.647 32.2647 94.591 32.526C94.535 32.7873 94.4977 33.0627 94.479 33.352C94.4324 33.9867 94.395 34.4813 94.367 34.836C94.3484 35.1907 94.3344 35.4473 94.325 35.606C94.3157 35.7647 94.311 35.8813 94.311 35.956C94.311 37.02 94.6564 37.552 95.347 37.552C95.5897 37.552 95.8464 37.5053 96.117 37.412C96.3877 37.3093 96.6397 37.1833 96.873 37.034C97.1157 36.8753 97.293 36.7213 97.405 36.572C97.4797 35.5733 97.531 34.78 97.559 34.192C97.5964 33.5947 97.615 33.128 97.615 32.792C97.615 32.6707 97.6104 32.5633 97.601 32.47C97.601 32.3767 97.5964 32.2927 97.587 32.218C97.5404 31.826 97.181 31.6347 96.509 31.644L96.761 31.294C96.789 31.322 96.8917 31.3453 97.069 31.364C97.2557 31.3733 97.4657 31.3827 97.699 31.392C97.9324 31.392 98.133 31.392 98.301 31.392C98.6277 31.392 98.9637 31.378 99.309 31.35C99.6544 31.322 99.897 31.3033 100.037 31.294L99.855 31.658C99.771 31.63 99.6917 31.616 99.617 31.616C99.1877 31.616 98.917 31.8167 98.805 32.218C98.749 32.4047 98.6977 32.6567 98.651 32.974C98.6044 33.282 98.567 33.6227 98.539 33.996C98.511 34.3693 98.4877 34.7473 98.469 35.13C98.4597 35.5033 98.455 35.844 98.455 36.152C98.455 36.2733 98.455 36.39 98.455 36.502C98.455 36.6047 98.4597 36.7027 98.469 36.796C98.4877 37.1227 98.567 37.3513 98.707 37.482C98.847 37.6033 99.057 37.664 99.337 37.664C99.449 37.664 99.5704 37.6547 99.701 37.636C99.841 37.6173 99.9857 37.5987 100.135 37.58L99.799 38.084C99.659 38.084 99.4444 38.0793 99.155 38.07C98.875 38.0607 98.567 38.056 98.231 38.056C98.0257 38.056 97.8437 38.0653 97.685 38.084C97.5264 38.1027 97.4377 38.112 97.419 38.112C97.3537 38.112 97.2977 38.0933 97.251 38.056C97.2137 38.028 97.1997 37.986 97.209 37.93C97.237 37.7807 97.2604 37.636 97.279 37.496C97.307 37.356 97.3257 37.258 97.335 37.202C96.9244 37.4447 96.593 37.6453 96.341 37.804C96.0984 37.9533 95.8697 38.0607 95.655 38.126C95.4404 38.2007 95.1697 38.238 94.843 38.238ZM103.56 38.196C102.888 38.196 102.352 38.1213 101.95 37.972C101.558 37.8133 101.274 37.5427 101.096 37.16C100.928 36.7773 100.844 36.2453 100.844 35.564C100.844 35.228 100.868 34.878 100.914 34.514C100.961 34.1407 101.026 33.786 101.11 33.45C101.204 33.1047 101.32 32.8153 101.46 32.582C101.759 32.0407 102.184 31.6673 102.734 31.462C103.294 31.2567 103.896 31.154 104.54 31.154C105.175 31.154 105.712 31.2567 106.15 31.462C106.337 31.574 106.43 31.686 106.43 31.798C106.43 31.8447 106.412 31.9333 106.374 32.064C106.337 32.1853 106.318 32.386 106.318 32.666C106.318 32.8433 106.318 32.9833 106.318 33.086C106.318 33.1793 106.323 33.268 106.332 33.352L105.954 33.534L105.884 33.464C105.912 33.3893 105.926 33.1607 105.926 32.778C105.926 32.3953 105.786 32.1107 105.506 31.924C105.236 31.7373 104.895 31.644 104.484 31.644C103.831 31.644 103.28 31.8587 102.832 32.288C102.487 32.624 102.258 33.0487 102.146 33.562C102.044 34.066 101.992 34.612 101.992 35.2C101.992 35.9933 102.128 36.5953 102.398 37.006C102.678 37.4167 103.192 37.622 103.938 37.622C104.722 37.622 105.488 37.2953 106.234 36.642L105.968 37.706C105.67 38.0327 104.867 38.196 103.56 38.196ZM110.188 38.168C109.208 38.168 108.531 37.9347 108.158 37.468C107.794 37.0013 107.612 36.3107 107.612 35.396C107.612 34.9013 107.658 34.402 107.752 33.898C107.854 33.394 108.018 32.9553 108.242 32.582C108.774 31.6393 109.763 31.168 111.21 31.168C112.05 31.168 112.67 31.3687 113.072 31.77C113.454 32.1527 113.618 32.6707 113.562 33.324C113.524 33.38 113.468 33.4547 113.394 33.548C113.319 33.632 113.226 33.7393 113.114 33.87C112.992 34.0287 112.885 34.1547 112.792 34.248C112.708 34.332 112.642 34.3693 112.596 34.36C112.493 34.3507 112.381 34.346 112.26 34.346C112.148 34.3367 112.031 34.332 111.91 34.332C111.695 34.332 111.499 34.3367 111.322 34.346C111.144 34.346 110.962 34.346 110.776 34.346C110.58 34.346 110.346 34.3507 110.076 34.36C109.805 34.3693 109.553 34.3833 109.32 34.402C109.086 34.4113 108.923 34.4207 108.83 34.43C108.802 34.8033 108.788 35.1393 108.788 35.438C108.788 36.1567 108.914 36.698 109.166 37.062C109.427 37.426 109.912 37.608 110.622 37.608C111.854 37.608 112.624 37.0433 112.932 35.914C112.941 35.8673 112.946 35.8253 112.946 35.788C112.946 35.7507 112.95 35.7227 112.96 35.704L113.38 35.508C113.37 35.592 113.352 35.718 113.324 35.886C113.305 36.054 113.282 36.278 113.254 36.558C113.254 36.6513 113.254 36.754 113.254 36.866C113.254 36.978 113.249 37.104 113.24 37.244C113.212 37.3653 113.137 37.4727 113.016 37.566C112.801 37.7713 112.451 37.9207 111.966 38.014C111.49 38.1167 110.897 38.168 110.188 38.168ZM109.838 33.8C109.94 33.8 110.052 33.8 110.174 33.8C110.304 33.8 110.44 33.7953 110.58 33.786C110.972 33.7767 111.308 33.7627 111.588 33.744C111.877 33.7253 112.11 33.7067 112.288 33.688C112.437 33.66 112.526 33.5247 112.554 33.282C112.554 32.778 112.418 32.3907 112.148 32.12C111.877 31.84 111.49 31.7 110.986 31.7C110.006 31.7 109.366 32.148 109.068 33.044C109.03 33.1747 108.998 33.2913 108.97 33.394C108.951 33.4967 108.932 33.6133 108.914 33.744C109.007 33.7627 109.128 33.7767 109.278 33.786C109.436 33.7953 109.623 33.8 109.838 33.8ZM117.461 38.168C116.481 38.168 115.805 37.9347 115.431 37.468C115.067 37.0013 114.885 36.3107 114.885 35.396C114.885 34.9013 114.932 34.402 115.025 33.898C115.128 33.394 115.291 32.9553 115.515 32.582C116.047 31.6393 117.037 31.168 118.483 31.168C119.323 31.168 119.944 31.3687 120.345 31.77C120.728 32.1527 120.891 32.6707 120.835 33.324C120.798 33.38 120.742 33.4547 120.667 33.548C120.593 33.632 120.499 33.7393 120.387 33.87C120.266 34.0287 120.159 34.1547 120.065 34.248C119.981 34.332 119.916 34.3693 119.869 34.36C119.767 34.3507 119.655 34.346 119.533 34.346C119.421 34.3367 119.305 34.332 119.183 34.332C118.969 34.332 118.773 34.3367 118.595 34.346C118.418 34.346 118.236 34.346 118.049 34.346C117.853 34.346 117.62 34.3507 117.349 34.36C117.079 34.3693 116.827 34.3833 116.593 34.402C116.36 34.4113 116.197 34.4207 116.103 34.43C116.075 34.8033 116.061 35.1393 116.061 35.438C116.061 36.1567 116.187 36.698 116.439 37.062C116.701 37.426 117.186 37.608 117.895 37.608C119.127 37.608 119.897 37.0433 120.205 35.914C120.215 35.8673 120.219 35.8253 120.219 35.788C120.219 35.7507 120.224 35.7227 120.233 35.704L120.653 35.508C120.644 35.592 120.625 35.718 120.597 35.886C120.579 36.054 120.555 36.278 120.527 36.558C120.527 36.6513 120.527 36.754 120.527 36.866C120.527 36.978 120.523 37.104 120.513 37.244C120.485 37.3653 120.411 37.4727 120.289 37.566C120.075 37.7713 119.725 37.9207 119.239 38.014C118.763 38.1167 118.171 38.168 117.461 38.168ZM117.111 33.8C117.214 33.8 117.326 33.8 117.447 33.8C117.578 33.8 117.713 33.7953 117.853 33.786C118.245 33.7767 118.581 33.7627 118.861 33.744C119.151 33.7253 119.384 33.7067 119.561 33.688C119.711 33.66 119.799 33.5247 119.827 33.282C119.827 32.778 119.692 32.3907 119.421 32.12C119.151 31.84 118.763 31.7 118.259 31.7C117.279 31.7 116.64 32.148 116.341 33.044C116.304 33.1747 116.271 33.2913 116.243 33.394C116.225 33.4967 116.206 33.6133 116.187 33.744C116.281 33.7627 116.402 33.7767 116.551 33.786C116.71 33.7953 116.897 33.8 117.111 33.8ZM126.989 38.168C126.839 38.168 126.755 38.0747 126.737 37.888C126.737 37.8507 126.732 37.804 126.723 37.748C126.723 37.692 126.723 37.6173 126.723 37.524C126.723 37.468 126.723 37.3933 126.723 37.3C126.732 37.2067 126.737 37.1087 126.737 37.006C126.475 37.3327 126.139 37.594 125.729 37.79C125.318 37.9767 124.837 38.07 124.287 38.07C123.792 38.07 123.386 37.958 123.069 37.734C122.751 37.5007 122.518 37.188 122.369 36.796C122.229 36.3947 122.159 35.9467 122.159 35.452C122.159 35.0973 122.187 34.7287 122.243 34.346C122.299 33.9633 122.383 33.5993 122.495 33.254C122.607 32.9087 122.747 32.6147 122.915 32.372C123.409 31.6253 124.235 31.252 125.393 31.252C125.729 31.252 126.055 31.3127 126.373 31.434C126.699 31.546 126.97 31.7187 127.185 31.952C127.213 31.3173 127.227 30.7947 127.227 30.384C127.227 29.6747 127.185 29.2733 127.101 29.18C126.951 29.04 126.741 28.97 126.471 28.97C126.312 28.97 126.125 28.998 125.911 29.054L126.121 28.648C126.223 28.6573 126.391 28.6713 126.625 28.69C126.858 28.6993 127.161 28.7087 127.535 28.718C127.637 28.718 127.787 28.704 127.983 28.676C128.188 28.6387 128.319 28.62 128.375 28.62C128.421 28.62 128.463 28.634 128.501 28.662C128.547 28.6807 128.571 28.7133 128.571 28.76C128.571 28.7693 128.561 28.8207 128.543 28.914C128.524 29.0073 128.501 29.1053 128.473 29.208C128.454 29.3013 128.44 29.3713 128.431 29.418C128.365 29.8473 128.295 30.426 128.221 31.154C128.155 31.882 128.076 32.8853 127.983 34.164C127.945 34.612 127.922 35.0133 127.913 35.368C127.903 35.7133 127.899 36.0213 127.899 36.292C127.899 36.6653 127.913 36.9453 127.941 37.132C127.997 37.4773 128.389 37.65 129.117 37.65C129.191 37.65 129.261 37.65 129.327 37.65C129.392 37.65 129.443 37.6453 129.481 37.636L129.537 37.72L129.299 38.07C129.168 38.0513 129.023 38.0373 128.865 38.028C128.706 38.028 128.51 38.028 128.277 38.028C128.09 38.028 127.922 38.0327 127.773 38.042C127.623 38.0607 127.493 38.0793 127.381 38.098C127.306 38.1073 127.231 38.1213 127.157 38.14C127.091 38.1587 127.035 38.168 126.989 38.168ZM124.791 37.482C125.36 37.482 125.845 37.2627 126.247 36.824C126.648 36.3853 126.881 35.7133 126.947 34.808C126.956 34.696 126.961 34.5887 126.961 34.486C126.97 34.3833 126.975 34.2853 126.975 34.192C126.975 33.3333 126.839 32.722 126.569 32.358C126.307 31.994 125.929 31.812 125.435 31.812C124.725 31.812 124.161 32.1387 123.741 32.792C123.563 33.0907 123.437 33.4593 123.363 33.898C123.288 34.3367 123.251 34.7427 123.251 35.116C123.251 35.732 123.321 36.2127 123.461 36.558C123.601 36.9033 123.787 37.146 124.021 37.286C124.254 37.4167 124.511 37.482 124.791 37.482Z" fill="white"/>
<path d="M17 8.45833V3.625H5.33331V25.375H28.6666V8.45833H17ZM9.99998 22.9583H7.66665V20.5417H9.99998V22.9583ZM9.99998 18.125H7.66665V15.7083H9.99998V18.125ZM9.99998 13.2917H7.66665V10.875H9.99998V13.2917ZM9.99998 8.45833H7.66665V6.04167H9.99998V8.45833ZM14.6666 22.9583H12.3333V20.5417H14.6666V22.9583ZM14.6666 18.125H12.3333V15.7083H14.6666V18.125ZM14.6666 13.2917H12.3333V10.875H14.6666V13.2917ZM14.6666 8.45833H12.3333V6.04167H14.6666V8.45833ZM26.3333 22.9583H17V20.5417H19.3333V18.125H17V15.7083H19.3333V13.2917H17V10.875H26.3333V22.9583ZM24 13.2917H21.6666V15.7083H24V13.2917ZM24 18.125H21.6666V20.5417H24V18.125Z" fill="white"/>
</svg>
